<svg width="41" height="41" viewBox="0 0 41 41" fill="none" xmlns="http://www.w3.org/2000/svg">
<g clip-path="url(#clip0_526_14193)">
<path d="M0.980469 0.215332H40.8212V21.7329L38.8492 24.8157L40.8212 27.5593V40.0753H0.980469V19.7908L2.21297 18.3727L0.980469 17.0163V0.215332Z" fill="#CDCDCD"/>
<path d="M8.71484 27.9907V21.7327H15.3377L16.0482 22.6594L16.7823 21.7327H40.8216V27.5591C40.8216 27.5591 40.1929 27.9844 39.4658 27.9907H26.1548L25.3537 27.0042V27.9907H22.7284V26.3067C22.7284 26.3067 22.3698 26.5418 21.5945 26.5418H20.7009V27.9907H16.7261L16.0166 27.044L15.2961 27.9907H8.71484Z" fill="#878787"/>
<path d="M0.980469 17.016L2.47395 13.5325H5.05676L5.90432 15.4838V13.5325H9.115L9.61955 14.9428L10.1087 13.5325H24.5213V14.2415C24.5213 14.2415 25.279 13.5325 26.5241 13.5325L31.2005 13.5488L32.0334 15.4746V13.5325H34.7203L35.4598 14.6387V13.5325H38.1713V19.7905H35.4598L34.7511 18.6807V19.7905H30.8035L30.4065 18.804H29.3453L28.9547 19.7905H26.2776C25.2062 19.7905 24.5213 19.0959 24.5213 19.0959V19.7905H20.4848L19.6837 18.804V19.7905H4.67413L4.27742 18.804H3.21956L2.82565 19.7905H0.980469V17.016Z" fill="#878787"/>
<path d="M3.00266 14.304L0.988281 18.9897H2.29974L2.67142 18.0514H4.83215L5.20191 18.9897H6.54225L4.5298 14.304H3.00266ZM3.74794 15.3945L4.40655 17.0341H3.08739L3.74794 15.3945Z" fill="#CDCDCD"/>
<path d="M6.68164 18.989V14.3032L8.5453 14.3101L9.62927 17.3312L10.6873 14.3032H12.536V18.989H11.3652V15.5363L10.124 18.989H9.09714L7.85252 15.5363V18.989H6.68164Z" fill="#CDCDCD"/>
<path d="M13.3359 18.989V14.3032H17.1567V15.3514H14.5191V16.1529H17.0951V17.1394H14.5191V17.9717H17.1567V18.989H13.3359Z" fill="#CDCDCD"/>
<path d="M17.8359 14.304V18.9897H19.0068V17.3251H19.4998L20.9037 18.9897H22.3346L20.7939 17.2634C21.4262 17.21 22.0784 16.6671 22.0784 15.8241C22.0784 14.8381 21.3049 14.304 20.4415 14.304H17.8359ZM19.0068 15.3521H20.3452C20.6663 15.3521 20.8999 15.6034 20.8999 15.8453C20.8999 16.1566 20.5973 16.3386 20.3626 16.3386H19.0068V15.3521Z" fill="#CDCDCD"/>
<path d="M23.7502 18.989H22.5547V14.3032H23.7502V18.989Z" fill="#CDCDCD"/>
<path d="M26.585 18.989H26.327C25.0784 18.989 24.3203 18.0048 24.3203 16.6654C24.3203 15.2928 25.0699 14.3032 26.6467 14.3032H27.9408V15.413H26.5994C25.9593 15.413 25.5066 15.9128 25.5066 16.6769C25.5066 17.5844 26.0242 17.9655 26.7699 17.9655H27.078L26.585 18.989Z" fill="#CDCDCD"/>
<path d="M29.1335 14.304L27.1191 18.9897H28.4306L28.8023 18.0514H30.963L31.3328 18.9897H32.6731L30.6607 14.304H29.1335ZM29.8788 15.3945L30.5374 17.0341H29.2182L29.8788 15.3945Z" fill="#CDCDCD"/>
<path d="M32.8105 18.989V14.3032H34.2992L36.1999 17.2473V14.3032H37.3708V18.989H35.9303L33.9814 15.9679V18.989H32.8105Z" fill="#CDCDCD"/>
<path d="M9.51562 27.1892V22.5034H13.3364V23.5516H10.6988V24.3531H13.2748V25.3396H10.6988V26.1719H13.3364V27.1892H9.51562Z" fill="#CDCDCD"/>
<path d="M28.2383 27.1892V22.5034H32.059V23.5516H29.4215V24.3531H31.9851V25.3396H29.4215V26.1719H32.059V27.1892H28.2383Z" fill="#CDCDCD"/>
<path d="M13.4837 27.1892L15.3441 24.8752L13.4395 22.5034H14.9146L16.0489 23.9697L17.187 22.5034H18.6044L16.7248 24.8463L18.5886 27.1892H17.1137L16.0123 25.7461L14.9377 27.1892H13.4837Z" fill="#CDCDCD"/>
<path d="M18.7285 22.5042V27.1899H19.9302V25.7102H21.1627C22.2056 25.7102 22.9961 25.1567 22.9961 24.0802C22.9961 23.1885 22.3761 22.5042 21.3149 22.5042H18.7285ZM19.9302 23.5638H21.2282C21.5651 23.5638 21.8059 23.7704 21.8059 24.1033C21.8059 24.4161 21.5663 24.6428 21.2243 24.6428H19.9302V23.5638Z" fill="#CDCDCD"/>
<path d="M23.5039 22.5034V27.1892H24.6748V25.5245H25.1678L26.5717 27.1892H28.0025L26.4619 25.4629C27.0942 25.4095 27.7464 24.8665 27.7464 24.0236C27.7464 23.0376 26.9729 22.5034 26.1095 22.5034H23.5039ZM24.6748 23.5516H26.0132C26.3343 23.5516 26.5678 23.8028 26.5678 24.0448C26.5678 24.3561 26.2652 24.538 26.0305 24.538H24.6748V23.5516Z" fill="#CDCDCD"/>
<path d="M32.5998 27.1892V26.1719H34.9431C35.2899 26.1719 35.44 25.9844 35.44 25.7788C35.44 25.5819 35.2903 25.3827 34.9431 25.3827H33.8842C32.9638 25.3827 32.4512 24.8216 32.4512 23.9793C32.4512 23.228 32.9206 22.5034 34.2884 22.5034H36.5685L36.0755 23.5577H34.1035C33.7265 23.5577 33.6105 23.7556 33.6105 23.9446C33.6105 24.1389 33.7539 24.3531 34.0419 24.3531H35.1511C36.1772 24.3531 36.6224 24.9354 36.6224 25.6979C36.6224 26.5177 36.1263 27.1892 35.0953 27.1892H32.5998Z" fill="#CDCDCD"/>
<path d="M36.8987 27.1892V26.1719H39.242C39.5887 26.1719 39.7388 25.9844 39.7388 25.7788C39.7388 25.5819 39.5892 25.3827 39.242 25.3827H38.1831C37.2626 25.3827 36.75 24.8216 36.75 23.9793C36.75 23.228 37.2194 22.5034 38.5872 22.5034H40.8673L40.3743 23.5577H38.4023C38.0254 23.5577 37.9093 23.7556 37.9093 23.9446C37.9093 24.1389 38.0527 24.3531 38.3407 24.3531H39.45C40.476 24.3531 40.9213 24.9354 40.9213 25.6979C40.9213 26.5177 40.4251 27.1892 39.3941 27.1892H36.8987Z" fill="#CDCDCD"/>
</g>
<defs>
<clipPath id="clip0_526_14193">
<rect width="39.9399" height="39.86" fill="white" transform="translate(0.980469 0.215088)"/>
</clipPath>
</defs>
</svg>
