<svg width="49" height="9" viewBox="0 0 49 9" fill="none" xmlns="http://www.w3.org/2000/svg">
<path d="M3.14737 0.322754H0.980469V7.87985H3.11754C4.25959 7.87985 5.0799 7.61454 5.81285 6.99834C6.663 6.29226 7.18927 5.20534 7.18927 4.08633C7.18927 1.88039 5.52095 0.322754 3.14737 0.322754ZM4.84766 5.99914C4.37891 6.40994 3.79297 6.58753 2.82777 6.58753H2.44638V1.58726H2.82777C3.76527 1.58726 4.35121 1.76271 4.84766 2.20561C5.37394 2.67632 5.66797 3.3824 5.66797 4.08847C5.66584 4.82235 5.37394 5.55624 4.84766 5.99914Z" fill="#CDCDCD"/>
<path d="M9.32706 0.322754H7.86328V7.87985H9.32706V0.322754Z" fill="#CDCDCD"/>
<path d="M12.9297 3.20474C12.0518 2.88165 11.7876 2.67625 11.7876 2.26331C11.7876 1.79259 12.2564 1.43956 12.8722 1.43956C13.3111 1.43956 13.6626 1.61501 14.0739 2.05791L14.8345 1.02875C14.1911 0.470316 13.4581 0.175049 12.608 0.175049C11.2614 0.175049 10.2642 1.11648 10.2642 2.35103C10.2642 3.41014 10.733 3.93862 12.1094 4.43929C12.6953 4.64469 12.9872 4.79233 13.1342 4.88005C13.4261 5.0555 13.5732 5.35077 13.5732 5.67385C13.5732 6.29219 13.0746 6.73295 12.4311 6.73295C11.728 6.73295 11.1719 6.37992 10.8203 5.73376L9.88281 6.61527C10.5561 7.61447 11.3764 8.05523 12.4886 8.05523C14.0121 8.05523 15.0945 7.02608 15.0945 5.55617C15.0966 4.38152 14.6001 3.82308 12.9297 3.20474Z" fill="#CDCDCD"/>
<path d="M15.5645 4.11619C15.5645 6.35209 17.2924 8.05736 19.5467 8.05736C20.1902 8.05736 20.7186 7.93968 21.3919 7.6166V5.88137C20.8059 6.46977 20.2797 6.70512 19.6064 6.70512C18.1127 6.70512 17.0879 5.61606 17.0879 4.08838C17.0879 2.64842 18.1724 1.49945 19.5488 1.49945C20.252 1.49945 20.7782 1.73481 21.394 2.35316V0.617933C20.7505 0.294852 20.2221 0.147219 19.5787 0.147219C17.3521 0.145079 15.5645 1.91026 15.5645 4.11619Z" fill="#CDCDCD"/>
<path d="M33.2846 5.41075L31.2924 0.322754H29.6816L32.8734 8.0874H33.666L36.9153 0.322754H35.3343L33.2846 5.41075Z" fill="#CDCDCD"/>
<path d="M37.5879 7.87985H41.747V6.61535H39.0538V4.55704H41.6596V3.26258H39.0538V1.58726H41.747V0.322754H37.5879V7.87985Z" fill="#CDCDCD"/>
<path d="M47.5749 2.55645C47.5749 1.14431 46.6076 0.320557 44.9094 0.320557H42.7148V7.87766H44.1786V4.85225H44.3832L46.4031 7.88194H48.2184L45.8469 4.70462C46.9613 4.46926 47.5749 3.70542 47.5749 2.55645ZM44.6175 3.79314H44.1786V1.49948H44.6175C45.5252 1.49948 46.0238 1.88247 46.0238 2.61636C46.0536 3.3802 45.555 3.79314 44.6175 3.79314Z" fill="#CDCDCD"/>
<path d="M26.0194 8.14386C28.2187 8.14386 30.0016 6.35348 30.0016 4.14493C30.0016 1.93638 28.2187 0.145996 26.0194 0.145996C23.82 0.145996 22.0371 1.93638 22.0371 4.14493C22.0371 6.35348 23.82 8.14386 26.0194 8.14386Z" fill="#CDCDCD"/>
<path opacity="0.65" d="M26.0194 8.146C28.2182 8.146 30.0016 6.35514 30.0016 4.14707C30.0016 1.93899 28.2203 0.145996 26.0194 0.145996C23.8184 0.145996 22.0371 1.93685 22.0371 4.14493C22.0371 6.353 23.8205 8.146 26.0194 8.146Z" fill="#CDCDCD"/>
<path d="M48.6001 0.646565C48.6001 0.498932 48.5128 0.441162 48.3359 0.441162H48.1016V1.14723H48.2763V0.851967L48.4808 1.11728H48.6854L48.451 0.824153C48.5426 0.822013 48.6001 0.734289 48.6001 0.646565ZM48.3082 0.734289L48.2784 0.558841H48.3082C48.3956 0.558841 48.4254 0.588796 48.4254 0.646565C48.4254 0.704335 48.3658 0.734289 48.3082 0.734289Z" fill="#CDCDCD"/>
<path d="M48.3658 0.145996C48.0142 0.145996 47.75 0.411308 47.75 0.764344C47.75 1.11738 48.0142 1.38269 48.3658 1.38269C48.6875 1.38269 48.9815 1.11738 48.9815 0.764344C48.9517 0.439123 48.6875 0.145996 48.3658 0.145996ZM48.3658 1.26287C48.1016 1.26287 47.8672 1.02751 47.8672 0.762203C47.8672 0.469077 48.0717 0.261536 48.3658 0.261536C48.63 0.261536 48.8345 0.496892 48.8345 0.762203C48.8345 1.05747 48.63 1.26287 48.3658 1.26287Z" fill="#CDCDCD"/>
</svg>
