<svg xmlns="http://www.w3.org/2000/svg" xmlns:xlink="http://www.w3.org/1999/xlink" id="Livello_1" x="0px" y="0px" viewBox="0 0 1313 367" style="enable-background:new 0 0 1313 367;" xml:space="preserve"><style type="text/css">	.st0{fill:#142563;}	.st1{fill:#91D4F2;}	.st2{fill:#F6A800;}</style><path class="st0" d="M1301.7,230.6c-25.6-22.2-52-45.1-56.8-49.6c-12.1-29.7-24.5-59.8-36.9-89.7l-4.6-11l-11.6-2.8 c-15.8-3.8-31.8-7.4-47.7-10.9l-17.6-3.8l-8.2,16c-2.4,4.6-4.7,9.2-7.1,13.9v-33l-19-3.7c-11.2-2.2-22.5-4.3-33.5-6.2l-27.5-4.9 v27.2c-5.5-7.6-11-15.2-16.5-22.7l-5.8-7.9l-9.6-1.5c-14.8-2.2-29.9-4.4-44.9-6.3L928,30.1v0.2l-5.6-0.7 c-29.7-3.5-59.9-6.4-89.7-8.7L822.6,20l-7.5,6.9c-4.1,3.7-8.2,7.5-12.3,11.3c-4.5-4.7-8.9-9.4-13.4-14l-6.4-6.7l-9.3-0.5 c-33.8-1.8-68.1-2.8-102-3l-23.6-0.2v29.1c-2.4-5.1-4.8-10.2-7.2-15.4l-6.4-13.6l-15.1,0.2c-16.1,0.2-32.5,0.7-48.6,1.2l-14.4,0.5 l-6,13.1c-3.3,7.1-6.6,14.3-9.9,21.4l-5.4-5.1c-7.1-6.7-14.3-13.3-21.4-19.9l-7.4-6.9l-10.1,0.7c-4.1,0.3-8.3,0.6-12.4,0.9 c-2.5,0.2-4.9,0.4-7.4,0.6c-4.8,0.4-9.6,0.8-14.4,1.2c-23.3,1.9-46.9,4.3-70.2,6.9l-20.7,2.4v31.1c-2.3-4.7-4.7-9.5-7-14.2 l-7.5-15.1l-16.7,2.3c-16,2.2-32.2,4.6-48.2,7.1l-12.7,2l-5.1,11.8c-2.1,4.9-4.3,9.9-6.4,14.8V46.3l-27.6,5 c-14.2,2.6-28.6,5.4-42.8,8.2L186,61.9L180.9,72c-6.6,13-13.2,26.2-19.9,39.3c-5.3-8.2-10.7-16.5-16-24.7l-9-13.8l-16,3.8 c-14.2,3.4-28.5,6.9-42.6,10.6l-17.6,4.5v92.5c-4.1,3.9-27.6,25.4-50.7,46.6c0,0,0,0,0,0L37,253l37.5,29.8c30-7.7,60.1-14.6,90.2-21 v59.6l49.4,39.3c290.8-56,589.6-56.1,880.5-0.5l48.8-38.7l-0.4-0.1l0.4,0.1V261c31.2,6.7,62.4,13.7,93.5,21.7l0,0l36.9-29.3 l28.3-22.5C1301.9,230.8,1301.8,230.7,1301.7,230.6z"></path><g>	<path class="st1" d="M163.6,158.3c-12.8-19.8-25.5-39.4-38.2-58.9c-14.1,3.3-28.1,6.8-42.1,10.5c0,28.1,0,56.3,0,84.4  c-10.5,9.9-21,19.9-31.5,30c10.5-2.9,21-5.7,31.5-8.4c0,0,0.1,0,0.1,0c0.8-0.2,1.5-0.4,2.3-0.6c10.1-2.6,20.3-5.1,30.4-7.6  c0-20.6,0-41.3,0-61.9c12,17.7,24,35.6,36.1,53.5c7.5-1.7,15-3.3,22.5-5c12.1-23.2,24.2-46.3,36.2-69.3c0,20.6,0,41.2,0,61.8  c11-2.2,22.1-4.3,33.2-6.3c0-35.3,0-70.7,0-106c-14.1,2.6-28.3,5.3-42.4,8.1C189,107.7,176.3,132.9,163.6,158.3z"></path>	<path class="st1" d="M295.4,65.6c-16.4,38-32.9,76.1-49.3,114.4c12.2-2.2,24.5-4.3,36.7-6.4c3-7.4,6.1-14.8,9.1-22.2  c18.2-2.9,36.4-5.6,54.7-8.1c3,6.5,6.1,13,9.1,19.5c12.2-1.6,24.5-3.1,36.8-4.5c-16.5-33.4-32.9-66.7-49.4-99.8  C327.2,60.8,311.3,63.1,295.4,65.6z M302.5,125.9c5.6-13.5,11.2-27.1,16.8-40.6c5.6,11.8,11.1,23.7,16.7,35.6  C324.8,122.5,313.7,124.1,302.5,125.9z"></path>	<path class="st1" d="M571.7,38.8c-16.6,35.9-33.2,72-49.8,108.3c12.4-0.7,24.7-1.3,37.1-1.8c3.1-7,6.1-14.1,9.2-21.1  c18.4-0.7,36.8-1.2,55.1-1.4c3.1,6.9,6.1,13.8,9.2,20.6c12.3-0.1,24.7-0.1,37,0c-16.6-35.4-33.1-70.7-49.7-105.8  C603.7,37.8,587.7,38.2,571.7,38.8z M578.8,99.9c5.7-12.9,11.3-25.7,17-38.5c5.6,12.5,11.2,25.1,16.8,37.6  C601.3,99.2,590.1,99.5,578.8,99.9z"></path>	<path class="st1" d="M1054.6,144.5c-19.6-27.4-39.2-54.6-58.8-81.5c-14.8-2.2-29.6-4.3-44.4-6.3c0,35.3,0,70.7,0,106  c11.1,1.5,22.3,3,33.4,4.6c0-24,0-48.1,0-72.1c19.7,26.9,39.4,54.1,59,81.5c14.7,2.5,29.4,5.2,44.1,8.1c0-35.3,0-70.7,0-106  c-11.1-2.1-22.1-4.2-33.2-6.2C1054.6,96.7,1054.6,120.6,1054.6,144.5z"></path>	<path class="st1" d="M1225.2,194.6c-12.9-31.5-25.8-63-38.8-94.3c-15.7-3.8-31.4-7.4-47.2-10.8c-16.3,31.8-32.7,63.7-49,95.9  c12.2,2.4,24.4,4.9,36.6,7.4c3-6.3,6-12.6,9-18.8c18.1,3.9,36.1,8,54.1,12.4c3,7.6,6,15.3,9,22.9c7.9,1.9,15.7,3.9,23.6,5.9  c0.8,0.2,1.5,0.4,2.3,0.6c3.4,0.9,6.8,1.8,10.2,2.7c7.1,1.9,14.3,3.8,21.4,5.7C1245.9,214.2,1235.5,204.4,1225.2,194.6z   M1146.2,152.3c5.6-11.4,11.1-22.9,16.6-34.3c5.5,13.9,11,27.9,16.5,41.8C1168.3,157.3,1157.3,154.8,1146.2,152.3z"></path>	<path class="st1" d="M671.6,37.4c0,35.3,0,70.7,0,106c33.7,0.3,67.3,1.3,100.9,3c9.5-8.9,19-17.8,28.5-26.7c0-16.4,0-32.9,0-49.3  c-9.5-10.1-19-20.1-28.5-30C738.9,38.6,705.3,37.6,671.6,37.4z M767.5,102.3c-5.2,4.9-10.5,9.9-15.7,14.9  c-15.5-0.7-31-1.2-46.6-1.5c0-13.7,0-27.5,0-41.2c-3.2-2.9-6.3-5.8-9.5-8.7c3.2,0.1,6.3,0.1,9.5,0.2c15.5,0.3,31,0.9,46.6,1.5  c5.2,5.4,10.5,10.9,15.7,16.3C767.5,90,767.5,96.2,767.5,102.3z"></path>	<path class="st1" d="M830.9,44.2c-6.9,6.3-13.8,12.7-20.8,19.1c0,21.6,0,43.2,0,64.8c6.9,7.3,13.8,14.7,20.8,22.1  c29.6,2.3,59.2,5.2,88.8,8.7c6.9-6.1,13.8-12.1,20.7-18.1c0-21.6,0-43.2,0-64.8c-6.9-7.7-13.8-15.5-20.7-23.1  C890.1,49.3,860.5,46.5,830.9,44.2z M907.9,130.1c-21.7-2.4-43.4-4.5-65.1-6.3c0-14.3,0-28.7,0-43c-3.1-3-6.1-6-9.2-9  c3.1,0.2,6.1,0.5,9.2,0.7c21.7,1.8,43.4,3.9,65.1,6.3C907.9,95.9,907.9,113,907.9,130.1z"></path>	<path class="st1" d="M485.6,43.5c-2.4,0.2-4.9,0.4-7.3,0.6c-4.8,0.4-9.5,0.8-14.3,1.1c-23.2,1.9-46.3,4.2-69.5,6.9  c0,35.3,0,70.7,0,106c11.2-1.3,22.3-2.5,33.5-3.6c0-8.8,0-17.7,0-26.5c11.3-1.1,22.6-2.2,34-3.1c5.3,8.4,10.6,16.8,15.9,25.2  c13.2-1,26.4-1.9,39.7-2.7c-6.4-9.9-12.8-19.8-19.2-29.7c0,0,0,0,0.1,0c-0.2-0.1-0.3-0.3-0.5-0.4c7.1-7.5,14.2-15,21.3-22.5  c0-10.8,0-21.5,0-32.3c-7.1-6.6-14.2-13.2-21.3-19.8C493.8,42.9,489.7,43.2,485.6,43.5z M476.5,95.6c-0.1,0-0.1,0-0.2,0  c-16.1,1.3-32.2,2.7-48.3,4.3c0-4.9,0-9.8,0-14.7c-3.1-2.5-6.3-5-9.4-7.5c3.1-0.3,6.3-0.6,9.4-1c16.1-1.6,32.2-3,48.3-4.3  c0.1,0,0.1,0,0.2,0c6.4-0.5,11.7,4.3,11.7,10.7C488.2,89.5,483,95,476.5,95.6z"></path></g><g>	<path class="st2" d="M589.4,167.9c0,23.2,0,46.4,0,69.6c24.7-0.8,49.4-1.1,74.1-1c0-5.7,0-11.3,0-17c-17.4-0.1-34.7,0.1-52.1,0.4  c0-3.4,0-6.9,0-10.3c17.4-0.4,34.7-0.5,52.1-0.4c0-5,0-9.9,0-14.9c-17.4-0.1-34.7,0.1-52.1,0.4c0-3.4,0-6.9,0-10.3  c17.4-0.4,34.7-0.5,52.1-0.4c0-5.7,0-11.3,0-17C638.8,166.8,614.1,167.1,589.4,167.9z"></path>	<path class="st2" d="M895.2,181.5c-10.8,21.9-21.7,43.9-32.5,65.9c8.1,0.8,16.2,1.7,24.2,2.7c2-4.3,4-8.6,6-12.9  c12,1.4,24,3,35.9,4.7c2,4.8,4,9.6,6,14.5c8,1.1,16,2.3,24,3.6c-10.8-24.9-21.5-49.7-32.3-74.4  C916.1,184.1,905.7,182.8,895.2,181.5z M899.9,222.4c3.7-7.9,7.4-15.7,11.1-23.6c3.6,8.8,7.3,17.6,10.9,26.4  C914.6,224.2,907.3,223.3,899.9,222.4z"></path>	<path class="st2" d="M987,194.9c-7.3-1.2-14.5-2.4-21.8-3.6c0,23.2,0,46.4,0,69.6c23.8,3.8,47.6,8,71.3,12.6c0-6.2,0-12.3,0-18.5  c-16.5-3.2-33-6.2-49.5-9C987,229,987,211.9,987,194.9z"></path>	<path class="st2" d="M1070.8,262c0-17,0-34.1,0-51.1c-7.2-1.5-14.5-3-21.7-4.5c0,23.2,0,46.4,0,69.6c23.7,4.8,47.3,10,70.8,15.7  c0-6.2,0-12.3,0-18.5C1103.6,269.2,1087.2,265.5,1070.8,262z"></path>	<path class="st2" d="M302.1,197.2c-4.6,5.5-9.2,11-13.9,16.5c0,14.6,0,29.2,0,43.8c4.6,3.8,9.2,7.6,13.9,11.4  c19.8-3.5,39.6-6.8,59.5-9.7c4.6-5.3,9.3-10.6,13.9-15.9c0-14.6,0-29.2,0-43.8c-4.6-4-9.3-8-13.9-11.9  C341.7,190.4,321.9,193.6,302.1,197.2z M353.7,241.7c-14.6,2.2-29.1,4.6-43.6,7.1c0-9.7,0-19.4,0-29.1c-2-1.5-4.1-3-6.1-4.5  c2-0.4,4.1-0.7,6.1-1.1c14.5-2.5,29.1-4.9,43.6-7.1C353.7,218.7,353.7,230.2,353.7,241.7z"></path>	<path class="st2" d="M736.2,168.6c-1.6-0.1-3.2-0.1-4.8-0.2c-3.1-0.1-6.3-0.2-9.4-0.3c-15.2-0.5-30.5-0.9-45.7-1  c0,23.2,0,46.4,0,69.6c7.3,0.1,14.7,0.2,22,0.4c0-5.8,0-11.6,0-17.4c7.4,0.2,14.9,0.4,22.3,0.6c3.5,5.9,6.9,11.8,10.4,17.8  c8.7,0.3,17.4,0.7,26,1.2c-4.2-7-8.4-13.9-12.6-20.9c0,0,0,0,0,0c-0.1-0.1-0.2-0.2-0.3-0.3c4.7-4.4,9.3-8.8,14-13.2  c0-7.1,0-14.2,0-21.2c-4.7-4.9-9.3-9.7-14-14.6C741.5,168.8,738.9,168.7,736.2,168.6z M736.2,196.4c-2,1.9-4,3.8-6,5.7  c-10.6-0.4-21.3-0.7-31.9-1c0-3.2,0-6.4,0-9.7c-2.1-1.9-4.1-3.8-6.2-5.7c2.1,0,4.1,0.1,6.2,0.1c10.6,0.2,21.3,0.6,31.9,1  c2,2.1,4,4.1,6,6.2C736.2,194.1,736.2,195.3,736.2,196.4z"></path>	<path class="st2" d="M402.1,181.8c-4.6,5.2-9.3,10.5-13.9,15.8c0,14.6,0,29.2,0,43.8c4.6,4,9.3,8.1,13.9,12.1  c19.9-2.5,39.8-4.8,59.8-6.7c4.7-5.1,9.3-10.2,14-15.2c0-4.2,0-8.4,0-12.6c-7.3,0.7-14.6,1.4-22,2.1c0,2.7,0,5.4,0,8  c-14.6,1.5-29.3,3.1-43.9,4.9c0-9.7,0-19.4,0-29.1c-2.1-1.6-4.1-3.2-6.2-4.8c2.1-0.3,4.1-0.5,6.2-0.8c14.6-1.8,29.2-3.4,43.9-4.9  c0,2.7,0,5.4,0,8c7.3-0.7,14.6-1.4,22-2.1c0-4.2,0-8.4,0-12.6c-4.7-4.2-9.3-8.4-14-12.6C442,177.1,422,179.3,402.1,181.8z"></path>	<path class="st2" d="M502.6,171.6c-4.7,5-9.3,10-14,15c0,14.6,0,29.2,0,43.8c4.7,4.3,9.3,8.5,14,12.8c20-1.5,40-2.7,60-3.7  c4.7-4.9,9.3-9.7,14-14.5c0-4.2,0-8.4,0-12.6c-7.3,0.3-14.7,0.6-22,1c0,2.7,0,5.4,0,8c-14.7,0.7-29.3,1.6-44,2.7  c0-9.7,0-19.4,0-29.1c-2.1-1.7-4.1-3.4-6.2-5.1c2.1-0.2,4.1-0.3,6.2-0.5c14.7-1.1,29.3-2,44-2.7c0,2.7,0,5.4,0,8  c7.3-0.4,14.7-0.7,22-1c0-4.2,0-8.4,0-12.6c-4.7-4.5-9.3-8.9-14-13.3C542.6,168.9,522.6,170.1,502.6,171.6z"></path>	<path class="st2" d="M210.9,238.4c0-2.2,0-4.5,0-6.7c13.4-3.1,26.9-6,40.3-8.7c7.3-1.5,14.5-2.9,21.8-4.4c0-3.9,0-7.8,0-11.8  c0-1.7,0-3.5,0-5.2c-23.4,4.6-46.8,9.5-70.1,14.9c-4.6,5.7-9.1,11.4-13.7,17.1c0,1,0,2.1,0,3.1c0,6.7,0,13.4,0,20.2  c6.4-0.4,12.8-0.7,19.2-1.1c15.1-0.6,30.3-1.1,45.4-1.4c0,1.8,0,3.7,0,5.5c-14.7,3-29.4,6.2-44.1,9.5c-7.2,1.7-14.4,3.3-21.7,5.1  c0,3.5,0,7,0,10.6c0,2.2,0,4.3,0,6.5c21.9-5.2,43.8-10.1,65.8-14.6c2.7-0.5,5.3-1.1,8-1.6c4.6-5.5,9.2-11.1,13.8-16.6  c0-1,0-2.1,0-3.1c0-6.3,0-12.5,0-18.8c0,0,0,0,0,0C254,237,232.4,237.5,210.9,238.4z"></path>	<path class="st2" d="M850,209.6c-0.6-0.7-1.2-1.4-1.9-2c-0.2,0-0.4,0-0.7-0.1c-1.3-0.1-2.6-0.3-3.9-0.4c2.9-2.6,5.9-5.3,8.8-7.9  c0.2-0.2,0.5-0.4,0.7-0.6c0-4.1,0-8.2,0-12.3c-3.2-3.5-6.3-6.9-9.5-10.4c-3.8-0.4-7.6-0.7-11.4-1.1c-20.4-1.8-40.8-3.3-61.3-4.5  c0,23.2,0,46.4,0,69.6c21.3,1.3,42.7,2.8,64,4.8c0.3,0,0.5,0,0.8,0c0,0,0,0,0,0c4.1,0.4,8.3,0.8,12.4,1.2c3.2-2.9,6.3-5.7,9.5-8.5  c0-3.7,0-7.3,0-11c0-2.8,0-5.6,0-8.4c-1.5-1.6-3-3.3-4.5-4.9C852.1,211.9,851.1,210.8,850,209.6z M792.9,186.6  c11.7,0.8,23.4,1.7,35.1,2.8c0,0,0,0,0,0c2.9,0.4,5.2,3,5.2,5.9c0,2.9-2.3,5.1-5.2,5c0,0,0,0,0,0c-11.7-1-23.4-1.9-35.1-2.8  c0-1.8,0-3.6,0-5.4c-2.1-2-4.1-4-6.2-6C788.8,186.4,790.9,186.5,792.9,186.6z M832.8,228.2c0,0-0.1,0-0.1,0c0,0,0,0,0,0  c-13.2-1.2-26.5-2.2-39.8-3.2c0-1.8,0-3.6,0-5.4c-2.1-2-4.1-4-6.2-6c2.1,0.1,4.1,0.3,6.2,0.4c13.3,0.9,26.5,2,39.8,3.2c0,0,0,0,0,0  c0,0,0.1,0,0.1,0c3,0.3,5.5,3,5.5,6C838.3,226.2,835.8,228.5,832.8,228.2z"></path></g></svg>