<svg width="32" height="26" viewBox="0 0 32 26" fill="none" xmlns="http://www.w3.org/2000/svg">
<path d="M20.6424 2.62549H12.2383V17.7589H20.6424V2.62549Z" fill="#878787"/>
<path d="M12.7722 10.1923C12.7708 8.73484 13.1004 7.29618 13.736 5.98523C14.3716 4.67428 15.2965 3.52541 16.4406 2.62558C15.0237 1.50958 13.3221 0.815561 11.5301 0.622839C9.73823 0.430117 7.92835 0.746464 6.30738 1.53574C4.6864 2.32501 3.31974 3.55536 2.36359 5.08615C1.40744 6.61693 0.900391 8.3864 0.900391 10.1923C0.900391 11.9982 1.40744 13.7677 2.36359 15.2985C3.31974 16.8293 4.6864 18.0596 6.30738 18.8489C7.92835 19.6381 9.73823 19.9545 11.5301 19.7618C13.3221 19.569 15.0237 18.875 16.4406 17.759C15.2965 16.8592 14.3716 15.7103 13.736 14.3994C13.1004 13.0884 12.7708 11.6498 12.7722 10.1923Z" fill="#CDCDCD"/>
<path d="M31.9812 10.1923C31.9812 11.9982 31.4742 13.7676 30.5181 15.2984C29.562 16.8292 28.1954 18.0596 26.5745 18.8489C24.9535 19.6381 23.1437 19.9545 21.3518 19.7618C19.5599 19.5691 17.8583 18.875 16.4414 17.759C17.5846 16.8583 18.5087 15.7092 19.1442 14.3985C19.7797 13.0877 20.1098 11.6495 20.1098 10.1923C20.1098 8.73508 19.7797 7.29687 19.1442 5.98612C18.5087 4.67538 17.5846 3.52632 16.4414 2.62558C17.8583 1.50959 19.5599 0.815556 21.3518 0.622837C23.1437 0.430117 24.9535 0.746478 26.5745 1.53576C28.1954 2.32504 29.562 3.55539 30.5181 5.08618C31.4742 6.61697 31.9812 8.38643 31.9812 10.1923Z" fill="#CDCDCD"/>
<path d="M5.26682 25.6267V23.895C5.26682 23.2427 4.85207 22.804 4.18386 22.7983C3.99351 22.7858 3.8033 22.8248 3.63309 22.9111C3.46288 22.9974 3.31888 23.1279 3.2161 23.2889C3.12245 23.1327 2.98847 23.0046 2.82829 22.9183C2.66812 22.8319 2.48766 22.7905 2.30594 22.7983C2.14755 22.7903 1.98981 22.8239 1.84837 22.8958C1.70692 22.9677 1.58667 23.0753 1.49951 23.2081V22.8675H0.900391V25.6267H1.50524V24.097C1.50524 23.6179 1.77024 23.364 2.17921 23.364C2.57667 23.364 2.77832 23.6237 2.77832 24.0913V25.6267H3.38317V24.097C3.38317 23.6179 3.65967 23.364 4.05713 23.364C4.46611 23.364 4.66197 23.6237 4.66197 24.0913V25.6267H5.26682ZM14.2186 22.8675H13.2393V22.0306H12.6345V22.8675H12.0757V23.4159H12.6345V24.6742C12.6345 25.315 12.8822 25.696 13.5907 25.696C13.8554 25.6967 14.1149 25.6227 14.3395 25.4824L14.1667 24.9686C14.0061 25.0647 13.8237 25.1183 13.6368 25.1245C13.3372 25.1245 13.2393 24.9398 13.2393 24.6627V23.4159H14.2186V22.8675ZM19.3281 22.7983C19.182 22.7939 19.0375 22.8292 18.9098 22.9003C18.782 22.9714 18.6758 23.0758 18.6023 23.2023V22.8675H18.009V25.6267H18.608V24.0797C18.608 23.6237 18.8039 23.3697 19.1956 23.3697C19.3238 23.3679 19.451 23.3915 19.5701 23.439L19.7544 22.8733C19.6176 22.8242 19.4734 22.7988 19.3281 22.7983ZM11.6033 23.0869C11.2642 22.8848 10.8743 22.7846 10.48 22.7983C9.78299 22.7983 9.33371 23.133 9.33371 23.6814C9.33371 24.1317 9.66781 24.4087 10.2841 24.4953L10.5664 24.5357C10.8948 24.5819 11.0503 24.6685 11.0503 24.8243C11.0503 25.0379 10.8314 25.1591 10.4224 25.1591C10.0934 25.1686 9.77084 25.0669 9.50648 24.8705L9.22425 25.338C9.57319 25.5823 9.99119 25.7077 10.4167 25.696C11.2116 25.696 11.6724 25.3207 11.6724 24.7955C11.6724 24.3106 11.3095 24.0566 10.7104 23.97L10.4282 23.9296C10.169 23.895 9.9616 23.8431 9.9616 23.6584C9.9616 23.4563 10.1574 23.3351 10.4858 23.3351C10.7873 23.3396 11.0827 23.4211 11.3441 23.5718L11.6033 23.0869ZM27.652 22.7983C27.5059 22.7939 27.3614 22.8292 27.2336 22.9003C27.1059 22.9714 26.9997 23.0758 26.9262 23.2023V22.8675H26.3328V25.6267H26.9319V24.0797C26.9319 23.6237 27.1278 23.3697 27.5195 23.3697C27.6476 23.3679 27.7749 23.3915 27.8939 23.439L28.0783 22.8733C27.9414 22.8242 27.7973 22.7988 27.652 22.7983ZM19.9329 24.2471C19.9329 25.0841 20.5148 25.696 21.4019 25.696C21.7616 25.7141 22.115 25.5967 22.3926 25.3669L22.1046 24.882C21.8975 25.0402 21.645 25.1273 21.3846 25.1302C20.9065 25.1245 20.5551 24.7781 20.5551 24.2471C20.5551 23.7161 20.9065 23.3697 21.3846 23.364C21.645 23.3669 21.8975 23.454 22.1046 23.6122L22.3926 23.1273C22.115 22.8975 21.7616 22.7802 21.4019 22.7983C20.5148 22.7983 19.9329 23.4101 19.9329 24.2471ZM25.5436 24.2471V22.8675H24.9446V23.2023C24.8423 23.0703 24.71 22.9647 24.5586 22.8944C24.4073 22.8241 24.2414 22.7911 24.0747 22.7983C23.3028 22.7983 22.698 23.4044 22.698 24.2471C22.698 25.0898 23.3028 25.696 24.0747 25.696C24.2414 25.7031 24.4073 25.6701 24.5586 25.5998C24.71 25.5295 24.8423 25.4239 24.9446 25.2919V25.6267H25.5436V24.2471ZM23.3143 24.2471C23.3143 23.7622 23.6311 23.364 24.1496 23.364C24.645 23.364 24.9791 23.7449 24.9791 24.2471C24.9791 24.7493 24.645 25.1302 24.1496 25.1302C23.6311 25.1302 23.3143 24.732 23.3143 24.2471ZM16.085 22.7983C15.2785 22.7983 14.714 23.387 14.714 24.2471C14.714 25.1245 15.3015 25.696 16.1253 25.696C16.5363 25.7104 16.9382 25.5727 17.2544 25.3092L16.9606 24.8647C16.7331 25.0474 16.4513 25.149 16.1598 25.1533C15.7739 25.1533 15.4225 24.9744 15.3361 24.478H17.3811C17.3868 24.4029 17.3926 24.3279 17.3926 24.2471C17.3868 23.387 16.8569 22.7983 16.085 22.7983ZM16.0734 23.3351C16.4594 23.3351 16.7071 23.5775 16.7705 24.0047H15.3419C15.4052 23.6064 15.6471 23.3351 16.0734 23.3351ZM31.1025 24.2471V21.7593H30.5034V23.2023C30.4011 23.0703 30.2688 22.9647 30.1175 22.8944C29.9662 22.8241 29.8002 22.7911 29.6336 22.7983C28.8616 22.7983 28.2568 23.4044 28.2568 24.2471C28.2568 25.0898 28.8616 25.696 29.6336 25.696C29.8002 25.7031 29.9662 25.6701 30.1175 25.5998C30.2688 25.5295 30.4011 25.4239 30.5034 25.2919V25.6267H31.1025V24.2471ZM31.8026 25.3721C31.8264 25.3719 31.8499 25.3766 31.8718 25.3858C31.8929 25.3946 31.9121 25.4074 31.9284 25.4233C31.9445 25.4393 31.9575 25.4583 31.9665 25.4792C31.9757 25.5006 31.9804 25.5237 31.9804 25.5471C31.9804 25.5704 31.9757 25.5935 31.9665 25.615C31.9574 25.6358 31.9445 25.6546 31.9284 25.6706C31.912 25.6866 31.8929 25.6994 31.8718 25.7083C31.85 25.7177 31.8264 25.7224 31.8026 25.7223C31.7676 25.7226 31.7333 25.7126 31.7039 25.6936C31.6746 25.6745 31.6515 25.6471 31.6375 25.615C31.6284 25.5935 31.6236 25.5704 31.6236 25.5471C31.6236 25.5237 31.6284 25.5006 31.6375 25.4792C31.6556 25.4368 31.6896 25.4032 31.7322 25.3858C31.7545 25.3765 31.7785 25.3719 31.8026 25.3721ZM31.8026 25.6836C31.8208 25.6838 31.8387 25.6801 31.8553 25.6729C31.8713 25.666 31.8858 25.6561 31.8981 25.6437C31.9235 25.618 31.9378 25.5833 31.9378 25.5471C31.9378 25.511 31.9235 25.4763 31.8981 25.4506C31.8859 25.4383 31.8713 25.4285 31.8553 25.4216C31.8387 25.4145 31.8207 25.411 31.8026 25.4111C31.7842 25.411 31.7659 25.4145 31.7489 25.4216C31.7284 25.4304 31.7103 25.444 31.6963 25.4614C31.6823 25.4787 31.6727 25.4992 31.6684 25.5211C31.6641 25.543 31.6653 25.5657 31.6717 25.587C31.6782 25.6084 31.6897 25.6279 31.7054 25.6437C31.7179 25.6562 31.7327 25.6661 31.7489 25.6729C31.7659 25.6801 31.7842 25.6838 31.8026 25.6836ZM31.8129 25.4652C31.8301 25.4641 31.8472 25.469 31.8611 25.4792C31.8667 25.4837 31.8711 25.4895 31.8741 25.4961C31.877 25.5027 31.8783 25.5099 31.878 25.5171C31.8782 25.5233 31.8771 25.5294 31.8748 25.5352C31.8725 25.5409 31.869 25.5461 31.8645 25.5504C31.8539 25.5598 31.8404 25.5655 31.8262 25.5665L31.8793 25.6278H31.8378L31.7885 25.5669H31.7727V25.6278H31.738V25.4652H31.8129ZM31.7727 25.4957V25.539H31.8125C31.8202 25.5394 31.8278 25.5375 31.8344 25.5336C31.837 25.5318 31.8392 25.5294 31.8406 25.5265C31.842 25.5236 31.8427 25.5203 31.8425 25.5171C31.8427 25.514 31.842 25.5108 31.8406 25.508C31.8391 25.5051 31.837 25.5027 31.8344 25.501C31.8277 25.4971 31.8202 25.4953 31.8125 25.4957H31.7727ZM28.8732 24.2471C28.8732 23.7622 29.19 23.364 29.7084 23.364C30.2038 23.364 30.5379 23.7449 30.5379 24.2471C30.5379 24.7493 30.2038 25.1302 29.7084 25.1302C29.19 25.1302 28.8732 24.732 28.8732 24.2471ZM8.64246 24.2471V22.8675H8.04335V23.2023C7.94109 23.0703 7.80876 22.9647 7.65742 22.8944C7.50609 22.8241 7.34016 22.7911 7.17351 22.7983C6.40162 22.7983 5.79679 23.4044 5.79679 24.2471C5.79679 25.0898 6.40162 25.696 7.17351 25.696C7.34016 25.7031 7.50609 25.6701 7.65742 25.5998C7.80876 25.5295 7.94109 25.4239 8.04335 25.2919V25.6267H8.64246V24.2471ZM6.41317 24.2471C6.41317 23.7622 6.73 23.364 7.24843 23.364C7.74381 23.364 8.0779 23.7449 8.0779 24.2471C8.0779 24.7493 7.74381 25.1302 7.24843 25.1302C6.73 25.1302 6.41317 24.732 6.41317 24.2471Z" fill="#CDCDCD"/>
</svg>
