<svg width="62" height="16" viewBox="0 0 62 16" fill="none" xmlns="http://www.w3.org/2000/svg">
<g clip-path="url(#clip0_526_14161)">
<path fill-rule="evenodd" clip-rule="evenodd" d="M48.2622 7.2703C48.0793 8.48658 47.1614 8.48658 46.2736 8.48658H45.7684L46.1228 6.21573C46.1442 6.07853 46.2611 5.97741 46.3985 5.97741H46.6301C47.2342 5.97741 47.8051 5.97741 48.0994 6.32584C48.2755 6.53431 48.3288 6.84329 48.2622 7.2703ZM47.8758 4.09717H44.5276C44.2988 4.09717 44.1039 4.26575 44.0682 4.49463L42.7144 13.1829C42.6876 13.3542 42.8186 13.5092 42.9901 13.5092H44.7079C44.8682 13.5092 45.0046 13.3912 45.0295 13.231L45.4135 10.7679C45.4491 10.5391 45.644 10.3705 45.8729 10.3705H46.9324C49.1377 10.3705 50.4104 9.29034 50.7431 7.14969C50.8928 6.21345 50.7491 5.47777 50.3159 4.96275C49.8398 4.39656 48.996 4.09717 47.8758 4.09717Z" fill="#CDCDCD"/>
<path fill-rule="evenodd" clip-rule="evenodd" d="M24.3814 7.2703C24.1984 8.48658 23.2805 8.48658 22.3928 8.48658H21.8877L22.2419 6.21573C22.2634 6.07853 22.3803 5.97741 22.5176 5.97741H22.7492C23.3535 5.97741 23.9244 5.97741 24.2185 6.32584C24.3947 6.53431 24.448 6.84329 24.3814 7.2703ZM23.9951 4.09717H20.6469C20.418 4.09717 20.2232 4.26575 20.1875 4.49463L18.8335 13.1829C18.8069 13.3542 18.9378 13.5092 19.1092 13.5092H20.7078C20.9367 13.5092 21.1317 13.3406 21.1674 13.1119L21.5327 10.7679C21.5682 10.5391 21.7633 10.3705 21.9921 10.3705H23.0516C25.2568 10.3705 26.5297 9.29034 26.8624 7.14969C27.0121 6.21345 26.8684 5.47777 26.4352 4.96275C25.9589 4.39656 25.1151 4.09717 23.9951 4.09717Z" fill="#CDCDCD"/>
<path fill-rule="evenodd" clip-rule="evenodd" d="M31.7675 10.3895C31.6127 11.3166 30.8854 11.939 29.9579 11.939C29.4929 11.939 29.1207 11.7876 28.8814 11.501C28.6443 11.2169 28.555 10.8121 28.6301 10.3613C28.7746 9.4426 29.5134 8.80012 30.4268 8.80012C30.8821 8.80012 31.2517 8.95301 31.4958 9.24219C31.7413 9.53351 31.8378 9.94102 31.7675 10.3895ZM34.0017 7.2316H32.3986C32.2612 7.2316 32.1443 7.33256 32.1229 7.47007L32.0524 7.92373L31.9403 7.75926C31.5931 7.24926 30.8194 7.07886 30.0467 7.07886C28.2755 7.07886 26.7624 8.43722 26.468 10.3424C26.3146 11.2928 26.5322 12.2011 27.0647 12.835C27.5539 13.4175 28.2521 13.6599 29.084 13.6599C30.5117 13.6599 31.3034 12.7318 31.3034 12.7318L31.2318 13.1827C31.205 13.3542 31.3359 13.5093 31.5075 13.5093H32.9513C33.1802 13.5093 33.375 13.3409 33.4107 13.112L34.2774 7.55794C34.3042 7.38647 34.1733 7.2316 34.0017 7.2316Z" fill="#CDCDCD"/>
<path fill-rule="evenodd" clip-rule="evenodd" d="M55.6483 10.3895C55.4935 11.3166 54.7664 11.939 53.8388 11.939C53.3737 11.939 53.0016 11.7876 52.7622 11.501C52.5251 11.2169 52.4358 10.8121 52.5111 10.3613C52.6554 9.4426 53.3942 8.80012 54.3077 8.80012C54.7629 8.80012 55.1326 8.95301 55.3765 9.24219C55.6221 9.53351 55.7186 9.94102 55.6483 10.3895ZM57.8825 7.2316H56.2794C56.142 7.2316 56.0251 7.33256 56.0037 7.47007L55.9331 7.92373L55.8212 7.75926C55.4739 7.24926 54.7002 7.07886 53.9275 7.07886C52.1564 7.07886 50.6432 8.43722 50.3488 10.3424C50.1956 11.2928 50.4132 12.2011 50.9455 12.835C51.4349 13.4175 52.1329 13.6599 52.9647 13.6599C54.3924 13.6599 55.1842 12.7318 55.1842 12.7318L55.1128 13.1827C55.0858 13.3542 55.2167 13.5093 55.3884 13.5093H56.8321C57.0609 13.5093 57.2558 13.3409 57.2916 13.112L58.1582 7.55794C58.185 7.38647 58.0541 7.2316 57.8825 7.2316Z" fill="#CDCDCD"/>
<mask id="mask0_526_14161" style="mask-type:alpha" maskUnits="userSpaceOnUse" x="0" y="0" width="62" height="16">
<path d="M0.992188 15.7049H61.873V0.753906H0.992188V15.7049Z" fill="white"/>
</mask>
<g mask="url(#mask0_526_14161)">
<path fill-rule="evenodd" clip-rule="evenodd" d="M42.5404 7.23169H40.9289C40.7749 7.23169 40.6307 7.30905 40.5442 7.43803L38.3214 10.7513L37.3793 7.56747C37.3204 7.36829 37.1393 7.23169 36.9337 7.23169H35.3497C35.1584 7.23169 35.0237 7.42204 35.0854 7.60524L36.8598 12.8761L35.1909 15.2593C35.0599 15.4463 35.1921 15.705 35.4186 15.705H37.0285C37.1811 15.705 37.3239 15.6294 37.4109 15.5024L42.7698 7.67514C42.898 7.48783 42.7656 7.23169 42.5404 7.23169Z" fill="#CDCDCD"/>
<path fill-rule="evenodd" clip-rule="evenodd" d="M59.7721 4.3358L58.398 13.1829C58.3713 13.3543 58.5023 13.5092 58.6736 13.5092H60.0558C60.2846 13.5092 60.4795 13.3406 60.5151 13.1119L61.87 4.42366C61.8968 4.25219 61.7659 4.09717 61.5943 4.09717H60.0478C59.9104 4.09717 59.7935 4.19844 59.7721 4.3358Z" fill="#CDCDCD"/>
<path fill-rule="evenodd" clip-rule="evenodd" d="M7.32521 15.0889L7.77527 12.2007L7.80432 12.0407C7.82598 11.9015 7.8964 11.7742 8.00249 11.6825C8.10857 11.5908 8.24385 11.5403 8.38334 11.5403H8.74071C9.33644 11.5403 9.88371 11.4759 10.3675 11.3489C10.8836 11.2135 11.3427 11.0026 11.7318 10.7225C12.1444 10.4256 12.491 10.0417 12.762 9.58177C13.0479 9.09659 13.2578 8.51243 13.386 7.84574C13.4993 7.25701 13.5205 6.72996 13.4493 6.27905C13.374 5.8027 13.1926 5.39626 12.9105 5.07068C12.7394 4.87347 12.5205 4.70261 12.2598 4.56281L12.2537 4.55946L12.2535 4.55185C12.3446 3.96419 12.3411 3.47399 12.2431 3.05201C12.1447 2.62912 11.9455 2.24856 11.6336 1.88887C10.9873 1.14359 9.81179 0.765625 8.13987 0.765625H3.54816C3.39468 0.765625 3.24571 0.821208 3.12894 0.922172C3.01217 1.02314 2.93483 1.16339 2.91075 1.31689L0.998831 13.5868C0.981376 13.6988 1.01313 13.8125 1.08596 13.8984C1.15878 13.9847 1.26472 14.0342 1.37667 14.0342H4.22529L4.22273 14.0479L4.02712 15.3034C4.01207 15.401 4.03976 15.5 4.10311 15.5749C4.16646 15.65 4.2587 15.6932 4.3562 15.6932H6.74543C6.8795 15.6932 7.00936 15.6446 7.11123 15.5565C7.2131 15.4683 7.28082 15.346 7.30173 15.2121L7.32521 15.0889Z" fill="#CDCDCD"/>
<path fill-rule="evenodd" clip-rule="evenodd" d="M5.68829 4.56784C5.71853 4.37338 5.84177 4.21424 6.00774 4.13368C6.08328 4.09714 6.16755 4.07673 6.25588 4.07673H9.85506C10.2815 4.07673 10.6791 4.10506 11.0426 4.16429C11.1464 4.1812 11.2474 4.20069 11.3457 4.22277C11.4439 4.24485 11.5392 4.26937 11.6314 4.29678C11.6776 4.31033 11.7229 4.32465 11.7676 4.33972C11.946 4.39972 12.1122 4.47038 12.2651 4.55231C12.4453 3.38932 12.2638 2.59791 11.6422 1.88111C10.9579 1.09198 9.72159 0.753906 8.13981 0.753906H3.5481C3.22488 0.753906 2.94966 0.991925 2.89925 1.31507L0.987332 13.585C0.949563 13.8271 1.1345 14.046 1.37661 14.046H4.21124L5.68829 4.56784Z" fill="#CDCDCD"/>
</g>
<path fill-rule="evenodd" clip-rule="evenodd" d="M12.2654 4.55225C12.2517 4.64103 12.2365 4.73133 12.2185 4.82438C11.6131 7.9707 9.5414 9.05846 6.89546 9.05846H5.54812C5.2249 9.05846 4.95194 9.29664 4.90153 9.61978L4.01599 15.3016C3.98304 15.5133 4.1448 15.7049 4.35652 15.7049H6.74589C7.02863 15.7049 7.26939 15.4967 7.31348 15.2139L7.33695 15.091L7.78702 12.2025L7.81606 12.0429C7.86015 11.7601 8.10091 11.552 8.38365 11.552H8.74103C11.0558 11.552 12.8682 10.6002 13.3979 7.84781C13.6191 6.69777 13.5047 5.73777 12.9195 5.06285C12.7426 4.85879 12.5223 4.68991 12.2654 4.55225Z" fill="#CDCDCD"/>
<path fill-rule="evenodd" clip-rule="evenodd" d="M11.6326 4.29671C11.5404 4.2693 11.4451 4.24478 11.3468 4.2227C11.2486 4.20062 11.1476 4.18113 11.0438 4.16422C10.6802 4.10498 10.2827 4.07666 9.85625 4.07666H6.25706C6.16873 4.07666 6.08447 4.09707 6.00893 4.13361C5.84296 4.21417 5.71972 4.37331 5.68947 4.56777L4.92446 9.47648L4.90234 9.61978C4.95275 9.29663 5.22571 9.05846 5.54893 9.05846H6.89627C9.54221 9.05846 11.6139 7.9707 12.2193 4.82437C12.2373 4.73133 12.2525 4.64102 12.2662 4.55224C12.1134 4.47031 11.9472 4.39965 11.7688 4.33965C11.7241 4.32458 11.6788 4.31026 11.6326 4.29671Z" fill="#878787"/>
</g>
<defs>
<clipPath id="clip0_526_14161">
<rect width="61" height="15.1197" fill="white" transform="translate(0.980469 0.585205)"/>
</clipPath>
</defs>
</svg>
