<svg width="54" height="20" viewBox="0 0 54 20" fill="none" xmlns="http://www.w3.org/2000/svg">
<g clip-path="url(#clip0_526_14212)">
<path d="M22.4668 18.1954V7.55036C22.4668 6.60991 22.8404 5.70798 23.5054 5.04298C24.1704 4.37799 25.0723 4.00439 26.0128 4.00439L29.1554 4.00878C30.0934 4.01067 30.9923 4.38465 31.6549 5.04863C32.3174 5.71262 32.6895 6.61236 32.6893 7.55036V9.8157C32.6893 10.7562 32.3157 11.6582 31.6508 12.3233C30.9858 12.9883 30.0839 13.3621 29.1434 13.3622H24.7014" stroke="#CDCDCD" stroke-width="0.638832" stroke-linecap="round" stroke-linejoin="round"/>
<path d="M33.5684 4.00391H34.9317C35.3177 4.00391 35.6879 4.15725 35.9609 4.43019C36.2338 4.70314 36.3872 5.07333 36.3872 5.45933V13.4105" stroke="#CDCDCD" stroke-width="0.638832" stroke-linecap="round" stroke-linejoin="round"/>
<path d="M36.0945 2.772L35.4764 2.15334C35.4399 2.1169 35.411 2.07363 35.3912 2.02601C35.3715 1.97839 35.3613 1.92734 35.3613 1.87579C35.3613 1.82423 35.3715 1.77319 35.3912 1.72556C35.411 1.67794 35.4399 1.63467 35.4764 1.59824L36.0945 0.980117C36.1683 0.9064 36.2683 0.86499 36.3726 0.86499C36.4769 0.86499 36.5769 0.9064 36.6507 0.980117L37.2682 1.59824C37.3047 1.63467 37.3336 1.67794 37.3534 1.72556C37.3731 1.77319 37.3833 1.82423 37.3833 1.87579C37.3833 1.92734 37.3731 1.97839 37.3534 2.02601C37.3336 2.07363 37.3047 2.1169 37.2682 2.15334L36.6479 2.772C36.6115 2.80849 36.5681 2.83743 36.5205 2.85718C36.4728 2.87692 36.4217 2.88708 36.3701 2.88708C36.3185 2.88708 36.2674 2.87692 36.2198 2.85718C36.1721 2.83743 36.1288 2.80849 36.0923 2.772" fill="#CDCDCD"/>
<path d="M39.0039 3.99658H40.3558C41.0512 3.99629 41.7182 4.27225 42.2101 4.76375L45.3725 7.92613C45.4699 8.0236 45.5855 8.10093 45.7127 8.15369C45.84 8.20645 45.9764 8.2336 46.1142 8.2336C46.252 8.2336 46.3884 8.20645 46.5156 8.15369C46.6429 8.10093 46.7585 8.0236 46.8559 7.92613L50.0067 4.77581C50.2502 4.53241 50.5392 4.33937 50.8573 4.20774C51.1754 4.0761 51.5163 4.00845 51.8606 4.00864H52.9598" stroke="#CDCDCD" stroke-width="0.638832" stroke-linecap="round" stroke-linejoin="round"/>
<path d="M39.0039 13.3408H40.3558C41.0511 13.341 41.7182 13.0651 42.2101 12.5736L45.3725 9.41127C45.5693 9.21468 45.836 9.10425 46.1142 9.10425C46.3923 9.10425 46.6591 9.21468 46.8559 9.41127L50.0067 12.5621C50.4985 13.0536 51.1653 13.3295 51.8606 13.3293H52.9598" stroke="#CDCDCD" stroke-width="0.638832" stroke-linecap="round" stroke-linejoin="round"/>
<path d="M14.4081 15.3607C14.0745 15.3619 13.744 15.297 13.4357 15.1697C13.1274 15.0425 12.8474 14.8554 12.6118 14.6193L10.0171 12.023C9.92533 11.9352 9.80324 11.8862 9.67626 11.8862C9.54928 11.8862 9.4272 11.9352 9.33542 12.023L6.73198 14.6264C6.49654 14.8629 6.21657 15.0503 5.90826 15.178C5.59995 15.3056 5.2694 15.3709 4.93571 15.37H4.42773L7.7156 18.6579C8.20871 19.1499 8.87689 19.4263 9.57352 19.4263C10.2701 19.4263 10.9383 19.1499 11.4314 18.6579L14.7259 15.3629L14.4081 15.3607Z" fill="#CDCDCD"/>
<path d="M4.93626 6.18527C5.26995 6.18438 5.60051 6.24964 5.90883 6.37728C6.21714 6.50491 6.49711 6.69239 6.73253 6.92888L9.33597 9.53287C9.42646 9.62308 9.54903 9.67374 9.67681 9.67374C9.80459 9.67374 9.92716 9.62308 10.0177 9.53287L12.6118 6.93874C12.847 6.70196 13.1269 6.51425 13.4353 6.38651C13.7436 6.25876 14.0743 6.19353 14.4081 6.19459H14.7204L11.426 2.90015C11.182 2.6561 10.8924 2.46251 10.5736 2.33043C10.2548 2.19835 9.9131 2.13037 9.56804 2.13037C9.22297 2.13037 8.88129 2.19835 8.5625 2.33043C8.24371 2.46251 7.95407 2.6561 7.71012 2.90015L4.42773 6.18527H4.93626Z" fill="#CDCDCD"/>
<path d="M17.444 8.92022L15.4532 6.92942C15.4083 6.94777 15.3604 6.95744 15.3118 6.95792H14.4066C13.9355 6.9591 13.484 7.14618 13.1501 7.4785L10.5559 10.071C10.3223 10.3042 10.0057 10.4352 9.67562 10.4352C9.34553 10.4352 9.02892 10.3042 8.7953 10.071L6.19131 7.46863C5.85752 7.13612 5.40595 6.94883 4.9348 6.94751H3.8235C3.7777 6.94647 3.73244 6.93738 3.68979 6.92065L1.68639 8.92022C1.19432 9.41334 0.917969 10.0815 0.917969 10.7781C0.917969 11.4748 1.19432 12.1429 1.68639 12.6361L3.68541 14.6351C3.72796 14.618 3.77328 14.6089 3.81911 14.6082H4.9348C5.40593 14.6068 5.85749 14.4196 6.19131 14.0871L8.79475 11.4837C9.26546 11.0135 10.0858 11.0135 10.5559 11.4837L13.1501 14.0772C13.484 14.4096 13.9355 14.5966 14.4066 14.5978H15.3118C15.3604 14.5982 15.4084 14.6078 15.4532 14.6263L17.444 12.6355C17.6881 12.3916 17.8817 12.1019 18.0137 11.7831C18.1458 11.4643 18.2138 11.1227 18.2138 10.7776C18.2138 10.4325 18.1458 10.0908 18.0137 9.77206C17.8817 9.45327 17.6881 9.16363 17.444 8.91968" fill="#CDCDCD"/>
<path d="M25.171 17.2905C25.0064 17.2977 24.8431 17.3225 24.6838 17.3645V18.0133C24.8056 18.056 24.9339 18.0775 25.063 18.0769C25.3885 18.0769 25.5425 17.9673 25.5425 17.6807C25.5425 17.4111 25.4165 17.2905 25.171 17.2905ZM24.5742 18.4961V17.2122H24.6635L24.6729 17.267C24.8388 17.2228 25.0088 17.1955 25.1803 17.1853C25.2991 17.177 25.417 17.2112 25.5129 17.2818C25.6225 17.3727 25.6598 17.5196 25.6598 17.6796C25.6598 17.8396 25.605 18.0051 25.4515 18.0922C25.3344 18.1506 25.2048 18.1794 25.074 18.1761C24.9417 18.1752 24.8103 18.1551 24.6838 18.1163V18.4939L24.5742 18.4961Z" fill="#CDCDCD"/>
<path d="M26.4761 17.2868C26.1512 17.2868 26.0059 17.3887 26.0059 17.6753C26.0059 17.952 26.149 18.077 26.4761 18.077C26.8032 18.077 26.9446 17.9762 26.9446 17.6901C26.9446 17.4134 26.8016 17.2868 26.4761 17.2868ZM26.8948 18.077C26.7852 18.1548 26.6416 18.1773 26.4761 18.1773C26.3106 18.1773 26.1621 18.1532 26.0564 18.077C25.9374 17.9931 25.8887 17.8578 25.8887 17.683C25.8887 17.5082 25.9374 17.3723 26.0564 17.2868C26.1621 17.2106 26.3073 17.1865 26.4761 17.1865C26.6449 17.1865 26.7868 17.2106 26.8948 17.2868C27.0153 17.3723 27.0619 17.5115 27.0619 17.6808C27.0619 17.8501 27.0137 17.9931 26.8948 18.077Z" fill="#CDCDCD"/>
<path d="M28.4337 18.1508L28.0709 17.3722H28.0638L27.7065 18.1508H27.6062L27.2227 17.2122H27.3432L27.6649 18.0002H27.6725L28.0222 17.2122H28.1224L28.4808 18.0002H28.4885L28.8025 17.2122H28.9214L28.5345 18.1508H28.4337Z" fill="#CDCDCD"/>
<path d="M29.6209 17.2846C29.3195 17.2846 29.2176 17.4188 29.199 17.6134H30.0429C30.0336 17.3997 29.924 17.2846 29.6209 17.2846ZM29.6171 18.1772C29.4368 18.1772 29.3195 18.1509 29.2264 18.0731C29.1168 17.9783 29.0801 17.8408 29.0801 17.683C29.0801 17.5251 29.1299 17.3723 29.2549 17.2813C29.3641 17.2126 29.492 17.1795 29.6209 17.1865C29.7523 17.1786 29.8831 17.2103 29.9963 17.2775C30.1316 17.3684 30.1579 17.5284 30.1579 17.7104H29.1962C29.2001 17.9038 29.2631 18.0748 29.6275 18.0748C29.7904 18.0705 29.9527 18.0521 30.1125 18.02V18.1186C29.95 18.152 29.785 18.1713 29.6193 18.1761" fill="#CDCDCD"/>
<path d="M30.4727 18.1508V17.2122H30.5614L30.5707 17.267C30.7697 17.2165 30.8628 17.1853 31.0376 17.1853H31.0508V17.2894H31.0245C30.8776 17.2894 30.7883 17.3097 30.5823 17.3634V18.1497L30.4727 18.1508Z" fill="#CDCDCD"/>
<path d="M31.6873 17.2846C31.3865 17.2846 31.284 17.4188 31.2654 17.6134H32.1093C32.1 17.3997 31.9904 17.2846 31.6873 17.2846ZM31.6835 18.1772C31.5032 18.1772 31.3865 18.1509 31.2933 18.0731C31.1837 17.9783 31.1465 17.8408 31.1465 17.683C31.1465 17.5251 31.1969 17.3723 31.3213 17.2813C31.4306 17.2127 31.5585 17.1796 31.6873 17.1865C31.8187 17.1786 31.9495 17.2103 32.0627 17.2775C32.1986 17.3684 32.2271 17.5284 32.2271 17.7104H31.2616C31.2654 17.9038 31.3284 18.0748 31.6928 18.0748C31.8559 18.0705 32.0184 18.0522 32.1783 18.02V18.1186C32.0159 18.152 31.8509 18.1712 31.6851 18.1761" fill="#CDCDCD"/>
<path d="M33.4252 17.3498C33.3033 17.3073 33.175 17.286 33.046 17.2868C32.7205 17.2868 32.5665 17.3964 32.5665 17.683C32.5665 17.9543 32.6931 18.0732 32.938 18.0732C33.1025 18.0655 33.2657 18.0411 33.4252 18.0003V17.3498ZM33.446 18.151L33.4361 18.0962C33.2702 18.1408 33.1002 18.1683 32.9287 18.1784C32.8097 18.1873 32.6916 18.1529 32.5961 18.0814C32.4865 17.9904 32.4492 17.8436 32.4492 17.6841C32.4492 17.5164 32.504 17.3586 32.6574 17.2731C32.7747 17.2133 32.9051 17.1839 33.0366 17.1876C33.1683 17.1894 33.299 17.2094 33.4252 17.2468V16.8167H33.5348V18.151H33.446Z" fill="#CDCDCD"/>
<path d="M35.1436 17.2907C34.9791 17.2979 34.8158 17.3227 34.6565 17.3646V18.0118C34.778 18.0557 34.9064 18.0778 35.0357 18.077C35.3612 18.077 35.5152 17.9674 35.5152 17.6808C35.5152 17.4112 35.3891 17.2907 35.1436 17.2907ZM35.4242 18.0934C35.3073 18.1518 35.1778 18.1806 35.0472 18.1773C34.9042 18.1764 34.7623 18.1525 34.6269 18.1066L34.6214 18.151H34.5469V16.8167H34.6565V17.2643C34.8191 17.2227 34.9854 17.1967 35.1529 17.1865C35.2717 17.1782 35.3896 17.2124 35.4856 17.283C35.5952 17.3739 35.6324 17.5208 35.6324 17.6808C35.6324 17.8408 35.5776 18.0063 35.4242 18.0934Z" fill="#CDCDCD"/>
<path d="M35.7786 18.5099V18.408C35.8334 18.4135 35.8827 18.4173 35.9178 18.4173C36.0536 18.4173 36.1369 18.3779 36.2115 18.2239L36.2471 18.1494L35.7539 17.2107H35.881L36.3013 18.0212H36.3085L36.7079 17.2107H36.8329L36.3046 18.265C36.2082 18.4562 36.1041 18.5193 35.9123 18.5193C35.867 18.519 35.8218 18.5159 35.7769 18.5099" fill="#CDCDCD"/>
<path d="M38.3472 17.6155H37.9833V17.9443H38.3472C38.5981 17.9443 38.6929 17.9163 38.6929 17.7799C38.6929 17.633 38.5625 17.6155 38.345 17.6155M38.2792 17.0851H37.9822V17.4193H38.2814C38.5285 17.4193 38.6272 17.3897 38.6272 17.2506C38.6272 17.1015 38.5022 17.0862 38.2792 17.0862M38.8447 18.0659C38.7105 18.1514 38.5488 18.1547 38.2535 18.1547H37.6973V16.8779H38.2403C38.4951 16.8779 38.6513 16.8812 38.7812 16.9596C38.8243 16.9853 38.8594 17.0226 38.8825 17.0673C38.9055 17.1119 38.9156 17.1621 38.9116 17.2122C38.9116 17.3459 38.8568 17.4352 38.7105 17.495V17.5021C38.8749 17.5393 38.9801 17.6232 38.9801 17.8035C38.9842 17.8549 38.9737 17.9066 38.9497 17.9523C38.9258 17.9981 38.8894 18.0361 38.8447 18.0621" fill="#CDCDCD"/>
<path d="M40.0922 17.7568C39.9826 17.7475 39.873 17.7421 39.7541 17.7421C39.5628 17.7421 39.4954 17.781 39.4954 17.8686C39.4954 17.9563 39.5502 17.9947 39.6982 17.9947C39.8311 17.9903 39.9632 17.9719 40.0922 17.9399V17.7568ZM40.147 18.1508L40.1399 18.096C39.9737 18.1429 39.8027 18.1705 39.6302 18.1782C39.5306 18.185 39.4313 18.1609 39.3458 18.1092C39.3091 18.0784 39.2806 18.0389 39.2628 17.9944C39.2451 17.9498 39.2386 17.9016 39.2441 17.8539C39.2495 17.8063 39.2666 17.7607 39.2939 17.7213C39.3213 17.6819 39.3579 17.6499 39.4006 17.6281C39.4993 17.5815 39.6313 17.5777 39.7524 17.5777C39.8505 17.5777 39.9826 17.5831 40.0922 17.5908V17.5738C40.0922 17.427 39.9957 17.3787 39.7316 17.3787C39.6297 17.3787 39.5048 17.3842 39.3859 17.3952V17.2056C39.5179 17.1946 39.667 17.1875 39.7897 17.1875C39.9541 17.1875 40.1223 17.2001 40.2281 17.2746C40.3339 17.3492 40.3563 17.4571 40.3563 17.5963V18.1519L40.147 18.1508Z" fill="#CDCDCD"/>
<path d="M41.5802 18.151V17.6331C41.5802 17.4622 41.4931 17.4008 41.3369 17.4008C41.2073 17.4065 41.0787 17.4264 40.9533 17.46V18.1515H40.6914V17.2123H40.9051L40.9144 17.272C41.0778 17.2239 41.2463 17.1952 41.4164 17.1865C41.5319 17.1773 41.6467 17.2117 41.738 17.283C41.812 17.3498 41.84 17.443 41.84 17.5767V18.151H41.5802Z" fill="#CDCDCD"/>
<path d="M42.5801 18.1773C42.459 18.1773 42.327 18.1603 42.2305 18.0786C42.1155 17.9855 42.082 17.8392 42.082 17.6808C42.082 17.5323 42.1303 17.3701 42.2733 17.2791C42.3905 17.203 42.5352 17.1865 42.6859 17.1865C42.7955 17.1865 42.8996 17.1936 43.0147 17.2046V17.4057C42.9199 17.3964 42.8065 17.3893 42.7155 17.3893C42.4662 17.3893 42.3489 17.4671 42.3489 17.683C42.3489 17.8852 42.4366 17.9729 42.641 17.9729C42.7735 17.9685 42.9053 17.9524 43.035 17.9246V18.1175C42.885 18.1525 42.7319 18.1725 42.578 18.1773" fill="#CDCDCD"/>
<path d="M43.8121 17.3832C43.5628 17.3832 43.4532 17.4616 43.4532 17.6753C43.4532 17.889 43.5628 17.98 43.8121 17.98C44.0615 17.98 44.1672 17.9038 44.1672 17.6901C44.1672 17.4764 44.0615 17.3832 43.8121 17.3832ZM44.262 18.0786C44.1469 18.1564 43.9962 18.1773 43.8121 18.1773C43.628 18.1773 43.474 18.1548 43.3606 18.0786C43.2302 17.9931 43.1836 17.8518 43.1836 17.683C43.1836 17.5142 43.2302 17.3701 43.3606 17.2846C43.474 17.2084 43.6242 17.1865 43.8121 17.1865C44.0001 17.1865 44.1469 17.2084 44.262 17.2846C44.3919 17.3701 44.4368 17.5137 44.4368 17.6808C44.4368 17.8479 44.3902 17.9931 44.262 18.0786Z" fill="#CDCDCD"/>
<path d="M45.9489 18.1774C45.7911 18.1774 45.6201 18.1511 45.4919 18.0453C45.3395 17.9187 45.293 17.7236 45.293 17.5138C45.293 17.3258 45.3527 17.1028 45.5511 16.9729C45.7056 16.8726 45.8968 16.8518 46.0903 16.8518C46.2317 16.8518 46.3769 16.8611 46.5347 16.8743V17.1028C46.3993 17.0918 46.2317 17.0825 46.1018 17.0825C45.739 17.0825 45.585 17.22 45.585 17.5138C45.585 17.8075 45.7281 17.9467 45.9955 17.9467C46.1866 17.9401 46.3766 17.9146 46.5626 17.8705V18.0974C46.3611 18.1439 46.1556 18.1707 45.9489 18.1774Z" fill="#CDCDCD"/>
<path d="M47.3341 17.3536C47.1149 17.3536 47.0327 17.432 47.0157 17.5728H47.6481C47.6404 17.4204 47.5511 17.3536 47.3341 17.3536ZM47.2946 18.1756C47.1406 18.1756 47.0009 18.1569 46.8968 18.0714C46.7927 17.986 46.7461 17.8391 46.7461 17.6791C46.7461 17.5361 46.7927 17.3761 46.9231 17.2829C47.0382 17.2013 47.185 17.1848 47.3341 17.1848C47.4678 17.1848 47.6256 17.1996 47.7407 17.2796C47.8914 17.3854 47.9051 17.5492 47.9051 17.7421H47.0141C47.0195 17.8857 47.0957 17.9783 47.3598 17.9783C47.5276 17.9746 47.6948 17.9585 47.8601 17.9301V18.1142C47.6736 18.1496 47.4845 18.1701 47.2946 18.1756Z" fill="#CDCDCD"/>
<path d="M49.0724 18.151V17.6331C49.0724 17.4622 48.9853 17.4008 48.8291 17.4008C48.6995 17.4065 48.5709 17.4264 48.4455 17.46V18.1515H48.1836V17.2123H48.3973L48.4066 17.272C48.57 17.2239 48.7385 17.1952 48.9086 17.1865C49.0241 17.1773 49.1389 17.2117 49.2302 17.283C49.3042 17.3498 49.3322 17.443 49.3322 17.5767V18.151H49.0724Z" fill="#CDCDCD"/>
<path d="M50.0789 18.1771C49.9524 18.1771 49.8373 18.1415 49.7743 18.0429C49.7226 17.9576 49.6985 17.8585 49.7052 17.759V17.4072H49.5156V17.2121H49.7052L49.7332 16.9277H49.9644V17.2121H50.3343V17.4072H49.9644V17.7086C49.9609 17.7693 49.9697 17.83 49.9902 17.8872C50.0181 17.9503 50.0795 17.9744 50.1617 17.9744C50.2246 17.9732 50.2872 17.967 50.3491 17.9557V18.1437C50.2599 18.163 50.1691 18.1742 50.0779 18.1771" fill="#CDCDCD"/>
<path d="M50.5898 18.151V17.2123H50.8036L50.8129 17.272C50.9628 17.2211 51.1193 17.1923 51.2776 17.1865C51.2887 17.1859 51.2998 17.1859 51.311 17.1865V17.4139C51.2814 17.4139 51.2458 17.4139 51.22 17.4139C51.0957 17.4144 50.972 17.4306 50.8518 17.4622V18.1553L50.5898 18.151Z" fill="#CDCDCD"/>
<path d="M52.2655 17.7568C52.1559 17.7475 52.0463 17.7421 51.9268 17.7421C51.7356 17.7421 51.6687 17.781 51.6687 17.8686C51.6687 17.9563 51.7235 17.9947 51.871 17.9947C52.004 17.9903 52.1363 17.9719 52.2655 17.9399V17.7568ZM52.3203 18.1508L52.3126 18.096C52.1465 18.1429 51.9755 18.1705 51.803 18.1782C51.7034 18.185 51.6041 18.1609 51.5186 18.1092C51.4841 18.0827 51.4565 18.0482 51.4384 18.0087C51.4202 17.9692 51.412 17.9258 51.4145 17.8823C51.412 17.8289 51.4258 17.7759 51.454 17.7305C51.4823 17.6851 51.5238 17.6494 51.5729 17.6281C51.6715 17.5815 51.803 17.5777 51.9241 17.5777C52.0227 17.5777 52.1548 17.5831 52.2644 17.5908V17.5738C52.2644 17.427 52.1674 17.3787 51.9038 17.3787C51.8014 17.3787 51.677 17.3842 51.5581 17.3952V17.2056C51.6901 17.1946 51.8386 17.1875 51.9614 17.1875C52.1258 17.1875 52.294 17.2001 52.3998 17.2746C52.5055 17.3492 52.528 17.4571 52.528 17.5963V18.1519L52.3203 18.1508Z" fill="#CDCDCD"/>
<path d="M52.8633 16.8167H53.1258V18.151H52.8633V16.8167Z" fill="#CDCDCD"/>
</g>
<defs>
<clipPath id="clip0_526_14212">
<rect width="52.2097" height="18.56" fill="white" transform="translate(0.919922 0.86499)"/>
</clipPath>
</defs>
</svg>
