<svg width="105" height="29" viewBox="0 0 105 29" fill="none" xmlns="http://www.w3.org/2000/svg">
<g clip-path="url(#clip0_526_14138)">
<path d="M83.1523 11.2032H84.7291L83.9407 8.19653L83.1523 11.2032Z" fill="white"/>
<path d="M54.5908 10.6812H53.3906V12.9348H54.4806C54.6104 12.9435 54.7404 12.9223 54.8607 12.8731C54.9811 12.8239 55.0888 12.7479 55.1753 12.6508C55.3475 12.4192 55.4319 12.134 55.4135 11.8459C55.4128 11.0888 55.1386 10.7006 54.5908 10.6812Z" fill="white"/>
<path d="M76.8211 7.33345H76.1973V12.9359H76.7069C76.9279 12.9594 77.1512 12.931 77.3594 12.853C77.5675 12.775 77.7546 12.6495 77.9058 12.4866C78.1817 12.019 78.3091 11.4786 78.2709 10.937V9.47159C78.3201 8.90183 78.2052 8.32993 77.9401 7.82323C77.806 7.65839 77.6348 7.52795 77.4401 7.44275C77.2455 7.35755 77.0332 7.3201 76.8211 7.33345V7.33345Z" fill="white"/>
<path d="M55.2814 8.40459C55.3088 8.1111 55.226 7.81787 55.0493 7.58194C54.9478 7.49062 54.8285 7.42139 54.6989 7.37843C54.5693 7.33547 54.4324 7.31973 54.2965 7.33235H53.3926V9.44155H54.2797C54.4185 9.45877 54.5595 9.44344 54.6913 9.39686C54.8231 9.35028 54.9423 9.27374 55.0394 9.17317C55.1366 9.07259 55.2089 8.95082 55.2509 8.81744C55.2929 8.68407 55.3034 8.54267 55.2814 8.40459V8.40459Z" fill="white"/>
<path d="M102.02 1.49683H3.39654C3.06876 1.49683 2.74418 1.56157 2.44135 1.687C2.13852 1.81244 1.86342 1.9963 1.63164 2.22808C1.39987 2.45985 1.216 2.73495 1.09057 3.03778C0.965131 3.34061 0.900391 3.6652 0.900391 3.99298V16.2753C0.900391 16.9373 1.16355 17.5721 1.63164 18.0402C2.09973 18.5083 2.73456 18.7713 3.39654 18.7713H102.02C102.682 18.7713 103.317 18.5083 103.785 18.0402C104.253 17.5721 104.516 16.9373 104.516 16.2753V3.99298C104.516 3.6652 104.451 3.34061 104.326 3.03778C104.2 2.73495 104.016 2.45985 103.785 2.22808C103.553 1.9963 103.278 1.81244 102.975 1.687C102.672 1.56157 102.347 1.49683 102.02 1.49683V1.49683ZM29.1802 8.79562C29.4706 9.04773 29.8043 9.24512 30.1651 9.37808C30.8454 9.58647 31.4619 9.96311 31.9579 10.4732C32.3407 10.9364 32.5396 11.5243 32.5165 12.1247C32.5335 12.4455 32.4793 12.766 32.3581 13.0635C32.2369 13.361 32.0517 13.6281 31.8155 13.8458C31.2804 14.2841 30.6009 14.5067 29.9102 14.4699C29.3943 14.4764 28.8842 14.3612 28.421 14.1339C27.9853 13.921 27.6203 13.5871 27.3696 13.1719C27.1084 12.7241 26.977 12.2124 26.99 11.6941H28.6996C28.6672 12.07 28.7679 12.4454 28.9837 12.7549C29.1047 12.8746 29.2505 12.9663 29.4108 13.0234C29.5711 13.0806 29.7418 13.1018 29.9112 13.0856C30.5054 13.0856 30.803 12.7709 30.8037 12.1413C30.8139 12.0004 30.7957 11.8588 30.7504 11.7251C30.705 11.5913 30.6332 11.468 30.5394 11.3624C30.256 11.1228 29.9311 10.9374 29.5806 10.8153C28.8902 10.5933 28.264 10.2067 27.7563 9.68886C27.3883 9.26633 27.1902 8.7226 27.2 8.16237C27.1882 7.83826 27.2501 7.51557 27.381 7.21886C27.512 6.92214 27.7087 6.65892 27.9561 6.44927C28.4959 6.00632 29.1792 5.77671 29.8769 5.80358C30.3585 5.79505 30.8346 5.90764 31.2612 6.13112C31.6575 6.33984 31.9831 6.66111 32.1971 7.05458C32.4191 7.4702 32.5318 7.93548 32.5247 8.40663H30.8296C30.8516 8.08643 30.7628 7.76844 30.578 7.50603C30.4892 7.40099 30.3771 7.31796 30.2507 7.2638C30.1243 7.20964 29.9873 7.18578 29.85 7.19398C29.722 7.18642 29.5936 7.20608 29.4737 7.25161C29.3538 7.29714 29.2448 7.36766 29.1541 7.45829C28.9809 7.65276 28.8913 7.90742 28.9045 8.16745C28.9056 8.28534 28.9307 8.40175 28.9781 8.50972C29.0255 8.61768 29.0942 8.71496 29.1802 8.79562V8.79562ZM35.4263 14.3492H33.7229V5.91378H35.4263V14.3492ZM42.153 7.33337H40.067V14.3492H38.3582V7.33337H36.3074V5.91378H42.153V7.33337ZM47.9771 14.3492H43.1339V5.91378H47.9657V7.33337H44.8373V9.32603H47.4904V10.6988H44.8373V12.9348H47.9771V14.3492ZM56.4386 13.7252C55.8905 14.1755 55.1908 14.3987 54.4832 14.3492H51.69V5.91378H54.2971C55.0149 5.86332 55.7272 6.07173 56.3045 6.50132C56.5407 6.71882 56.7247 6.9866 56.8436 7.28487C56.9624 7.58315 57.0128 7.90427 56.9908 8.22458C57.0016 8.61274 56.9033 8.99611 56.707 9.3311C56.526 9.63302 56.2544 9.87037 55.931 10.0093C56.2951 10.107 56.6081 10.3403 56.8057 10.6613C57.0221 11.0261 57.1303 11.4449 57.1178 11.8688C57.1419 12.2086 57.0935 12.5497 56.9761 12.8695C56.8587 13.1894 56.6748 13.4807 56.4365 13.7242L56.4386 13.7252ZM63.0404 14.3492H58.3479V5.91378H60.0514V12.9358H63.0404V14.3492ZM65.8036 14.3492H64.1002V5.91378H65.8036V14.3492ZM73.1327 14.3492H71.4302L68.9341 8.81542V14.3492H67.2296V5.91378H68.932L71.4282 11.4517V5.91378H73.1253L73.1327 14.3492ZM79.981 10.7913C80.0361 11.7421 79.7216 12.6774 79.1033 13.4017C78.7914 13.7234 78.4141 13.9745 77.997 14.1379C77.5799 14.3014 77.1327 14.3734 76.6853 14.3492H74.5012V5.91378H76.732C77.1687 5.89303 77.6047 5.96589 78.011 6.12731C78.4172 6.28874 78.7844 6.5349 79.0878 6.84968C79.7045 7.56075 80.0248 8.48142 79.983 9.42175L79.981 10.7913ZM85.5606 14.3492L85.1092 12.6229H82.7859L82.3335 14.3492H80.5322L83.1675 5.91378H84.7275L87.3816 14.3492H85.5606ZM93.6478 10.7913C93.7028 11.7421 93.3883 12.6774 92.77 13.4017C92.458 13.7234 92.0805 13.9745 91.6632 14.1379C91.2459 14.3014 90.7983 14.3734 90.3508 14.3492H88.1669V5.91378H90.3965C90.8332 5.89303 91.2694 5.96589 91.6757 6.12731C92.0819 6.28874 92.4489 6.5349 92.7522 6.84968C93.3685 7.56096 93.6884 8.48158 93.6465 9.42175L93.6478 10.7913ZM100.808 10.8902C100.867 11.8369 100.583 12.7731 100.006 13.5265C99.7297 13.8405 99.3854 14.0878 98.9996 14.2499C98.6138 14.412 98.1964 14.4847 97.7786 14.4625C97.3611 14.4833 96.9443 14.4106 96.5586 14.2498C96.1728 14.0889 95.8278 13.844 95.5488 13.5329C94.9687 12.7945 94.6763 11.8706 94.7261 10.9329V9.4903C94.6681 8.51898 94.9536 7.55832 95.5323 6.77605C95.8042 6.45156 96.1475 6.19443 96.5354 6.02499C96.9234 5.85555 97.3453 5.7782 97.7682 5.79927C98.1867 5.77983 98.6041 5.85629 98.9887 6.02245C99.3733 6.18861 99.7149 6.44022 99.9876 6.75827C100.571 7.52997 100.863 8.48346 100.81 9.44968L100.808 10.8902Z" fill="white"/>
<path d="M90.4874 7.33333H89.8633V12.9358H90.3741C90.5952 12.9593 90.8185 12.931 91.0267 12.853C91.2348 12.775 91.4219 12.6495 91.5731 12.4865C91.8493 12.019 91.9767 11.4785 91.9382 10.9369V9.47148C91.9877 8.9017 91.873 8.32972 91.6076 7.82312C91.4736 7.65799 91.3018 7.52735 91.1069 7.44213C90.9121 7.35691 90.6996 7.31964 90.4874 7.33333V7.33333Z" fill="white"/>
<path d="M97.7629 7.22321C97.5629 7.2118 97.3638 7.25567 97.1871 7.35016C97.0104 7.44465 96.8631 7.58611 96.7615 7.75882C96.5113 8.2645 96.3954 8.82613 96.4254 9.38953V10.8902C96.3866 11.4536 96.5009 12.0169 96.7554 12.521C96.8629 12.6912 97.0138 12.8294 97.1932 12.9209C97.3725 13.0124 97.5737 13.0539 97.7746 13.041C97.9707 13.0525 98.1659 13.011 98.3403 12.9207C98.5148 12.8305 98.6615 12.6949 98.7654 12.5282C99.016 12.0373 99.1303 11.488 99.0954 10.938V9.47269C99.1324 8.8886 99.0207 8.30472 98.771 7.77545C98.6715 7.59835 98.5241 7.45261 98.3459 7.35498C98.1678 7.25736 97.9658 7.21176 97.7629 7.22321V7.22321Z" fill="white"/>
<path d="M13.3269 0.136719C12.8005 0.136771 12.2763 0.203761 11.7669 0.336289C9.07224 1.03621 3.77572 2.52028 3.13508 3.55404C2.71908 4.2186 2.14999 7.40204 3.04647 11.5381H13.3269V0.136719Z" fill="#EDEFF4"/>
<path d="M23.6066 11.5391C24.5031 7.3999 23.9311 4.21854 23.5182 3.55502C22.8797 2.52542 17.5829 1.03719 14.8862 0.337266C14.3768 0.204705 13.8525 0.137714 13.3262 0.137695V11.5401L23.6066 11.5391Z" fill="#C7C7C7"/>
<path d="M13.3262 11.5391V26.4662C19.9115 21.6885 22.6311 16.0464 23.6066 11.5391H13.3262Z" fill="#EDEFF4"/>
<path d="M3.04688 11.5391C4.0224 16.0464 6.74201 21.6895 13.3273 26.4662V11.5391H3.04688Z" fill="#C7C7C7"/>
<path d="M31.5225 25.7932H30.8867L30.3672 24.4192H28.2891L27.8003 25.7932H27.1611L29.041 20.8918H29.6357L31.5225 25.7932ZM30.1792 23.9031L29.4102 21.8147C29.3851 21.7463 29.36 21.637 29.335 21.4866H29.3213C29.2985 21.6256 29.2723 21.7349 29.2427 21.8147L28.4805 23.9031H30.1792ZM35.6958 23.8108C35.6958 25.1871 35.0749 25.8752 33.833 25.8752C32.6436 25.8752 32.0488 25.2133 32.0488 23.8894V20.8918H32.623V23.8518C32.623 24.8567 33.0469 25.3591 33.8945 25.3591C34.7126 25.3591 35.1216 24.8738 35.1216 23.9031V20.8918H35.6958V23.8108ZM36.9229 25.7932V20.8918H38.2764C40.0036 20.8918 40.8672 21.6882 40.8672 23.281C40.8672 24.0375 40.6268 24.6459 40.146 25.1062C39.6675 25.5642 39.026 25.7932 38.2217 25.7932H36.9229ZM37.4971 21.4114V25.2737H38.2285C38.8711 25.2737 39.3713 25.1016 39.729 24.7576C40.0868 24.4135 40.2656 23.9259 40.2656 23.2947C40.2656 22.0391 39.598 21.4114 38.2627 21.4114H37.4971ZM42.4053 25.7932H41.8311V20.8918H42.4053V25.7932ZM46.5957 21.4114H45.1807V25.7932H44.6064V21.4114H43.1948V20.8918H46.5957V21.4114ZM50.6836 25.7932H50.0479L49.5283 24.4192H47.4502L46.9614 25.7932H46.3223L48.2021 20.8918H48.7969L50.6836 25.7932ZM49.3403 23.9031L48.5713 21.8147C48.5462 21.7463 48.5212 21.637 48.4961 21.4866H48.4824C48.4596 21.6256 48.4334 21.7349 48.4038 21.8147L47.6416 23.9031H49.3403ZM51.4082 25.7932V20.8918H52.7617C54.4889 20.8918 55.3525 21.6882 55.3525 23.281C55.3525 24.0375 55.1121 24.6459 54.6313 25.1062C54.1528 25.5642 53.5114 25.7932 52.707 25.7932H51.4082ZM51.9824 21.4114V25.2737H52.7139C53.3564 25.2737 53.8566 25.1016 54.2144 24.7576C54.5721 24.4135 54.751 23.9259 54.751 23.2947C54.751 22.0391 54.0833 21.4114 52.748 21.4114H51.9824ZM58.292 25.8752C57.597 25.8752 57.0399 25.6462 56.6206 25.1882C56.2036 24.7302 55.9951 24.1344 55.9951 23.4006C55.9951 22.6122 56.2082 21.9833 56.6343 21.5139C57.0604 21.0445 57.6403 20.8098 58.374 20.8098C59.0508 20.8098 59.5954 21.0377 60.0078 21.4934C60.4225 21.9491 60.6299 22.545 60.6299 23.281C60.6299 24.0808 60.418 24.7131 59.9941 25.178C59.5703 25.6428 59.0029 25.8752 58.292 25.8752ZM58.333 21.3293C57.818 21.3293 57.3999 21.5151 57.0786 21.8865C56.7573 22.2579 56.5967 22.7455 56.5967 23.3494C56.5967 23.9532 56.7528 24.4397 57.0649 24.8088C57.3794 25.1757 57.7884 25.3591 58.292 25.3591C58.8298 25.3591 59.2536 25.1837 59.5635 24.8328C59.8734 24.4819 60.0283 23.9908 60.0283 23.3596C60.0283 22.7125 59.8779 22.2123 59.5771 21.8591C59.2764 21.5059 58.8617 21.3293 58.333 21.3293ZM66.1123 25.7932H63.5146V20.8918H66.0029V21.4114H64.0889V23.0417H65.8594V23.5579H64.0889V25.2737H66.1123V25.7932ZM72.0527 25.7932H71.4819V22.5051C71.4819 22.2454 71.4979 21.9275 71.5298 21.5515H71.5161C71.4614 21.7725 71.4124 21.9309 71.3691 22.0266L69.6943 25.7932H69.4141L67.7427 22.054C67.6948 21.9446 67.6458 21.7771 67.5957 21.5515H67.582C67.6003 21.7475 67.6094 22.0676 67.6094 22.512V25.7932H67.0557V20.8918H67.8145L69.3184 24.3098C69.4346 24.5719 69.5098 24.7678 69.5439 24.8977H69.5645C69.6624 24.6288 69.741 24.4283 69.8003 24.2961L71.335 20.8918H72.0527V25.7932ZM78.1094 23.322C78.1094 23.7322 78.0718 24.0956 77.9966 24.4124C77.9237 24.7291 77.8166 24.9968 77.6753 25.2156C77.5363 25.432 77.3643 25.5972 77.1592 25.7112C76.9564 25.8228 76.7251 25.8787 76.4653 25.8787C76.2192 25.8787 75.9993 25.8251 75.8057 25.718C75.6143 25.6086 75.4525 25.4503 75.3203 25.2429C75.1882 25.0356 75.0879 24.7815 75.0195 24.4807C74.9512 24.1777 74.917 23.8313 74.917 23.4417C74.917 23.0133 74.9523 22.635 75.0229 22.3069C75.0959 21.9788 75.2018 21.7042 75.3408 21.4832C75.4798 21.2598 75.6519 21.0924 75.8569 20.9807C76.0643 20.8668 76.3013 20.8098 76.5679 20.8098C77.5955 20.8098 78.1094 21.6472 78.1094 23.322ZM77.5352 23.3767C77.5352 21.9822 77.2036 21.2849 76.5405 21.2849C75.841 21.2849 75.4912 21.9947 75.4912 23.4143C75.4912 24.7382 75.8341 25.4001 76.52 25.4001C77.1968 25.4001 77.5352 24.7257 77.5352 23.3767ZM81.8896 24.238C81.8896 24.4773 81.8509 24.6972 81.7734 24.8977C81.696 25.0982 81.5889 25.2714 81.4521 25.4172C81.3154 25.5631 81.1525 25.677 80.9634 25.759C80.7743 25.8388 80.5692 25.8787 80.3481 25.8787C80.1021 25.8787 79.881 25.8274 79.6851 25.7249C79.4914 25.6223 79.3262 25.4753 79.1895 25.2839C79.055 25.0903 78.9525 24.8544 78.8818 24.5764C78.8112 24.2984 78.7759 23.9851 78.7759 23.6365C78.7759 23.2104 78.8226 22.8241 78.916 22.4778C79.0117 22.1292 79.1462 21.8318 79.3193 21.5857C79.4948 21.3373 79.7056 21.1459 79.9517 21.0115C80.1978 20.877 80.4723 20.8098 80.7754 20.8098C81.1126 20.8098 81.3838 20.8565 81.5889 20.95V21.4797C81.3359 21.3499 81.0693 21.2849 80.7891 21.2849C80.5703 21.2849 80.3732 21.3339 80.1978 21.4319C80.0223 21.5299 79.8719 21.6689 79.7466 21.8489C79.6213 22.0266 79.5244 22.2419 79.4561 22.4949C79.39 22.7478 79.3569 23.0292 79.3569 23.3391H79.3706C79.5962 22.9312 79.9688 22.7273 80.4883 22.7273C80.7025 22.7273 80.895 22.7638 81.0659 22.8367C81.2391 22.9096 81.3861 23.0133 81.5068 23.1477C81.6299 23.2799 81.7244 23.4382 81.7905 23.6228C81.8566 23.8074 81.8896 24.0125 81.8896 24.238ZM81.3154 24.3098C81.3154 24.1389 81.2938 23.9851 81.2505 23.8484C81.2072 23.7117 81.1445 23.5955 81.0625 23.4998C80.9827 23.4041 80.8836 23.3311 80.7651 23.281C80.6466 23.2286 80.5122 23.2024 80.3618 23.2024C80.2228 23.2024 80.0941 23.2286 79.9756 23.281C79.8571 23.3334 79.7546 23.4052 79.668 23.4963C79.5814 23.5852 79.513 23.69 79.4629 23.8108C79.415 23.9293 79.3911 24.0557 79.3911 24.1902C79.3911 24.3588 79.415 24.5172 79.4629 24.6653C79.5107 24.8111 79.578 24.9387 79.6646 25.0481C79.7511 25.1575 79.8537 25.2441 79.9722 25.3079C80.0929 25.3694 80.2262 25.4001 80.3721 25.4001C80.5133 25.4001 80.6421 25.3739 80.7583 25.3215C80.8745 25.2668 80.9736 25.1917 81.0557 25.0959C81.1377 25.0002 81.2015 24.8863 81.2471 24.7542C81.2926 24.6197 81.3154 24.4716 81.3154 24.3098ZM84.5283 24.0637H82.6621V23.6228H84.5283V24.0637ZM90.6123 25.7932H90.0415V22.5051C90.0415 22.2454 90.0575 21.9275 90.0894 21.5515H90.0757C90.021 21.7725 89.972 21.9309 89.9287 22.0266L88.2539 25.7932H87.9736L86.3022 22.054C86.2544 21.9446 86.2054 21.7771 86.1553 21.5515H86.1416C86.1598 21.7475 86.1689 22.0676 86.1689 22.512V25.7932H85.6152V20.8918H86.374L87.8779 24.3098C87.9941 24.5719 88.0693 24.7678 88.1035 24.8977H88.124C88.222 24.6288 88.3006 24.4283 88.3599 24.2961L89.8945 20.8918H90.6123V25.7932ZM95.6982 25.7932H95.0625L94.543 24.4192H92.4648L91.9761 25.7932H91.3369L93.2168 20.8918H93.8115L95.6982 25.7932ZM94.355 23.9031L93.5859 21.8147C93.5609 21.7463 93.5358 21.637 93.5107 21.4866H93.4971C93.4743 21.6256 93.4481 21.7349 93.4185 21.8147L92.6562 23.9031H94.355ZM96.9971 25.7932H96.4229V20.8918H96.9971V25.7932Z" fill="white"/>
</g>
<defs>
<clipPath id="clip0_526_14138">
<rect width="104" height="28.0165" fill="white" transform="translate(0.900391 0.136719)"/>
</clipPath>
</defs>
</svg>
