<svg width="57" height="19" viewBox="0 0 57 19" fill="none" xmlns="http://www.w3.org/2000/svg">
<g clip-path="url(#clip0_526_14159)">
<path d="M37.4462 0.072998C33.4739 0.072998 29.9242 2.13389 29.9242 5.94155C29.9242 10.3082 36.2198 10.6098 36.2198 12.8035C36.2198 13.7272 35.1623 14.554 33.3562 14.554C30.7929 14.554 28.8771 13.3987 28.8771 13.3987L28.0573 17.241C28.0573 17.241 30.2643 18.2169 33.1944 18.2169C37.5373 18.2169 40.9547 16.0549 40.9547 12.1821C40.9547 7.56792 34.6328 7.27528 34.6328 5.23916C34.6328 4.5156 35.5009 3.72279 37.3019 3.72279C39.334 3.72279 40.9919 4.56303 40.9919 4.56303L41.7941 0.851971C41.7941 0.851971 39.9902 0.072998 37.4462 0.072998ZM1.104 0.353079L1.00781 0.913239C1.00781 0.913239 2.67894 1.21938 4.18406 1.83006C6.12204 2.53034 6.26009 2.938 6.58647 4.20418L10.1431 17.9281H14.9107L22.2557 0.353079H17.499L12.7794 12.3024L10.8535 2.1736C10.6769 1.01436 9.78229 0.353079 8.68722 0.353079H1.104ZM24.1684 0.353079L20.4369 17.9281H24.9729L28.6913 0.353079H24.1684ZM49.467 0.353079C48.3732 0.353079 47.7937 0.939239 47.3684 1.96354L40.723 17.9281H45.4797L46.4 15.2673H52.1951L52.7547 17.9281H56.9518L53.2903 0.353079H49.467ZM50.0856 5.10131L51.4956 11.6963H47.7182L50.0856 5.10131Z" fill="#CDCDCD"/>
</g>
<defs>
<clipPath id="clip0_526_14159">
<rect width="56" height="18.2" fill="white" transform="translate(0.980469 0.0449219)"/>
</clipPath>
</defs>
</svg>
